<svg xmlns="http://www.w3.org/2000/svg" xmlns:xlink="http://www.w3.org/1999/xlink" width="500" zoomAndPan="magnify" viewBox="0 0 375 374.999991" height="500" preserveAspectRatio="xMidYMid meet" version="1.0"><defs><g/><clipPath id="bb31f22c68"><path d="M 120 156 L 289 156 L 289 183 L 120 183 Z M 120 156 " clip-rule="nonzero"/></clipPath><clipPath id="18fca4ed59"><path d="M 119.195312 155.59375 L 286.820312 144.371094 L 289.125 178.796875 L 121.5 190.015625 Z M 119.195312 155.59375 " clip-rule="nonzero"/></clipPath><clipPath id="14c2ec2cb1"><path d="M 121.503906 190.085938 L 289.128906 178.867188 L 286.824219 144.441406 L 119.199219 155.664062 Z M 121.503906 190.085938 " clip-rule="nonzero"/></clipPath></defs><g fill="#00bfff" fill-opacity="1"><g transform="translate(97.903906, 212.153511)"><g><path d="M 84.859375 -13.375 C 85.234375 -13.195312 85.363281 -12.90625 85.25 -12.5 C 85.132812 -12.09375 84.925781 -11.660156 84.625 -11.203125 C 84.320312 -10.753906 84.046875 -10.378906 83.796875 -10.078125 C 83.671875 -9.941406 83.59375 -9.832031 83.5625 -9.75 C 81.363281 -6.707031 79.453125 -3.507812 77.828125 -0.15625 C 76.210938 3.195312 74.695312 6.609375 73.28125 10.078125 C 72.6875 11.421875 72.109375 12.757812 71.546875 14.09375 C 70.242188 17.039062 68.984375 20.003906 67.765625 22.984375 C 65.671875 28.078125 63.453125 33.132812 61.109375 38.15625 C 60.285156 39.914062 59.359375 41.632812 58.328125 43.3125 C 57.492188 44.6875 56.222656 45.359375 54.515625 45.328125 C 53.109375 45.359375 52.253906 44.707031 51.953125 43.375 C 51.648438 42.21875 51.476562 41.039062 51.4375 39.84375 C 51.25 35.300781 51.359375 30.78125 51.765625 26.28125 C 52.035156 23.144531 52.285156 20.03125 52.515625 16.9375 C 52.734375 13.582031 52.992188 10.226562 53.296875 6.875 C 53.953125 -0.757812 54.679688 -8.390625 55.484375 -16.015625 C 56.410156 -24.773438 57.375 -33.503906 58.375 -42.203125 C 60.113281 -56.960938 61.660156 -71.765625 63.015625 -86.609375 C 63.085938 -87.535156 63.101562 -88.300781 63.0625 -88.90625 C 63.03125 -89.507812 62.898438 -89.734375 62.671875 -89.578125 C 62.441406 -89.421875 62.09375 -88.710938 61.625 -87.453125 C 57.21875 -74.785156 53.15625 -62.03125 49.4375 -49.1875 C 49.28125 -48.707031 49.15625 -48.238281 49.0625 -47.78125 C 46.820312 -40.144531 44.5625 -32.535156 42.28125 -24.953125 C 41.425781 -22.015625 40.441406 -19.035156 39.328125 -16.015625 C 38.210938 -12.992188 36.925781 -10.144531 35.46875 -7.46875 C 35.03125 -6.6875 34.453125 -6.15625 33.734375 -5.875 C 33.023438 -5.59375 32.222656 -5.503906 31.328125 -5.609375 C 30.398438 -5.691406 29.71875 -6.140625 29.28125 -6.953125 C 28.90625 -7.734375 28.675781 -8.570312 28.59375 -9.46875 C 28.488281 -10.519531 28.378906 -11.585938 28.265625 -12.671875 C 27.972656 -15.035156 27.734375 -17.394531 27.546875 -19.75 C 27.023438 -26.332031 26.335938 -32.941406 25.484375 -39.578125 C 24.628906 -46.210938 23.523438 -52.765625 22.171875 -59.234375 C 21.796875 -60.878906 21.25 -60.835938 20.53125 -59.109375 C 19.8125 -57.378906 18.992188 -54.484375 18.078125 -50.421875 C 17.160156 -46.359375 16.191406 -41.679688 15.171875 -36.390625 C 14.148438 -31.109375 13.164062 -25.726562 12.21875 -20.25 C 11.269531 -14.769531 10.394531 -9.765625 9.59375 -5.234375 C 8.414062 1.804688 7.625 6.296875 7.21875 8.234375 C 6.875 9.617188 6.40625 10.9375 5.8125 12.1875 C 5.539062 12.75 5.164062 13.117188 4.6875 13.296875 C 4.207031 13.484375 3.671875 13.546875 3.078125 13.484375 C 1.890625 13.328125 1.160156 12.640625 0.890625 11.421875 C 0.785156 10.785156 0.734375 10.132812 0.734375 9.46875 C 0.679688 8.945312 0.65625 8.421875 0.65625 7.890625 C 0.5625 5.847656 0.492188 3.785156 0.453125 1.703125 C 0.148438 -14.273438 0.242188 -30.269531 0.734375 -46.28125 C 1.054688 -56.40625 1.351562 -66.554688 1.625 -76.734375 C 1.625 -77.816406 1.625 -78.914062 1.625 -80.03125 C 1.59375 -81.0625 1.59375 -82.117188 1.625 -83.203125 C 1.65625 -84.035156 1.957031 -84.609375 2.53125 -84.921875 C 3.113281 -85.234375 3.796875 -85.21875 4.578125 -84.875 C 4.878906 -84.78125 5.082031 -84.617188 5.1875 -84.390625 C 5.300781 -84.160156 5.375 -83.898438 5.40625 -83.609375 C 5.75 -80.816406 5.867188 -78.023438 5.765625 -75.234375 C 5.710938 -73.554688 5.65625 -71.878906 5.59375 -70.203125 C 5.46875 -65.617188 5.3125 -61.03125 5.125 -56.4375 C 4.90625 -50.53125 4.765625 -44.632812 4.703125 -38.75 C 4.617188 -34.394531 4.523438 -30.035156 4.421875 -25.671875 C 4.296875 -21.046875 4.253906 -16.429688 4.296875 -11.828125 C 4.296875 -8.660156 4.273438 -5.453125 4.234375 -2.203125 C 4.234375 -2.023438 4.253906 -1.738281 4.296875 -1.34375 C 4.347656 -0.957031 4.414062 -0.546875 4.5 -0.109375 C 4.59375 0.316406 4.6875 0.65625 4.78125 0.90625 C 4.875 1.164062 4.984375 1.234375 5.109375 1.109375 C 5.242188 0.984375 5.367188 0.5625 5.484375 -0.15625 C 5.804688 -2.195312 6.179688 -4.503906 6.609375 -7.078125 C 7.535156 -13.140625 8.632812 -19.820312 9.90625 -27.125 C 11.1875 -34.4375 12.628906 -41.335938 14.234375 -47.828125 C 15.847656 -54.316406 17.585938 -59.351562 19.453125 -62.9375 C 20.234375 -64.25 21.195312 -64.878906 22.34375 -64.828125 C 23.5 -64.785156 24.429688 -64.082031 25.140625 -62.71875 C 26.066406 -60.519531 26.847656 -57.828125 27.484375 -54.640625 C 28.117188 -51.460938 28.644531 -48.148438 29.0625 -44.703125 C 29.488281 -41.253906 29.859375 -38.023438 30.171875 -35.015625 C 30.316406 -33.367188 30.46875 -31.878906 30.625 -30.546875 C 30.84375 -28.410156 31.046875 -26.457031 31.234375 -24.6875 C 31.671875 -20.46875 32.078125 -17.1875 32.453125 -14.84375 C 32.828125 -12.5 33.328125 -11.328125 33.953125 -11.328125 C 34.585938 -11.328125 35.457031 -12.785156 36.5625 -15.703125 C 37.664062 -18.617188 39.164062 -23.257812 41.0625 -29.625 C 42.769531 -35.519531 44.382812 -41.203125 45.90625 -46.671875 C 47.914062 -53.898438 50 -61.082031 52.15625 -68.21875 C 54.320312 -75.351562 56.859375 -82.785156 59.765625 -90.515625 C 60.628906 -92.753906 61.523438 -94.597656 62.453125 -96.046875 C 63.390625 -97.503906 64.296875 -98.269531 65.171875 -98.34375 C 65.515625 -98.394531 65.851562 -98.351562 66.1875 -98.21875 C 66.53125 -98.082031 66.832031 -97.695312 67.09375 -97.0625 C 67.351562 -96.425781 67.503906 -95.363281 67.546875 -93.875 C 67.609375 -91.382812 67.554688 -88.890625 67.390625 -86.390625 C 67.222656 -83.890625 67.023438 -81.398438 66.796875 -78.921875 C 66.765625 -78.609375 66.75 -78.328125 66.75 -78.078125 C 65.519531 -65.296875 64.140625 -52.539062 62.609375 -39.8125 C 61.648438 -31.5 60.722656 -23.195312 59.828125 -14.90625 C 59.828125 -14.71875 59.804688 -14.503906 59.765625 -14.265625 C 58.953125 -6.535156 58.191406 1.207031 57.484375 8.96875 C 56.890625 15.769531 56.347656 22.582031 55.859375 29.40625 C 55.828125 30 55.796875 30.613281 55.765625 31.25 C 55.640625 33 55.5625 34.742188 55.53125 36.484375 C 55.53125 37.128906 55.53125 37.75 55.53125 38.34375 C 55.5 38.53125 55.515625 38.6875 55.578125 38.8125 C 55.648438 38.9375 55.800781 39 56.03125 39 C 56.101562 39 56.1875 38.972656 56.28125 38.921875 C 56.375 38.867188 56.4375 38.785156 56.46875 38.671875 C 58.707031 34.046875 60.890625 29.429688 63.015625 24.828125 C 65.015625 20.398438 67.066406 15.972656 69.171875 11.546875 C 71.285156 7.128906 73.519531 2.75 75.875 -1.59375 C 77.800781 -5.25 79.582031 -8.171875 81.21875 -10.359375 C 82.863281 -12.554688 84.078125 -13.5625 84.859375 -13.375 Z M 84.859375 -13.375 "/></g></g></g><g fill="#00bfff" fill-opacity="1"><g transform="translate(180.747292, 212.153511)"><g><path d="M 19.5 -13.890625 C 19.75 -14.140625 19.882812 -13.828125 19.90625 -12.953125 C 19.925781 -12.085938 19.132812 -10.867188 17.53125 -9.296875 C 15.9375 -7.734375 14.28125 -6.992188 12.5625 -7.078125 C 12.195312 -7.117188 11.878906 -7.09375 11.609375 -7 C 11.347656 -6.90625 11.125 -6.6875 10.9375 -6.34375 C 10.757812 -6.039062 10.539062 -5.765625 10.28125 -5.515625 C 10.28125 -5.515625 10.265625 -5.492188 10.234375 -5.453125 C 9.179688 -4.335938 7.945312 -3.601562 6.53125 -3.25 C 5.125 -2.894531 3.785156 -3.003906 2.515625 -3.578125 C 1.242188 -4.148438 0.328125 -5.242188 -0.234375 -6.859375 C -0.640625 -8.316406 -0.671875 -9.765625 -0.328125 -11.203125 C -0.0351562 -12.472656 0.425781 -13.664062 1.0625 -14.78125 C 1.84375 -16.269531 2.851562 -17.320312 4.09375 -17.9375 C 5.34375 -18.550781 6.753906 -18.894531 8.328125 -18.96875 C 10.660156 -19.082031 12.132812 -17.984375 12.75 -15.671875 C 13.125 -14.328125 13.21875 -12.972656 13.03125 -11.609375 C 12.976562 -11.296875 12.914062 -10.972656 12.84375 -10.640625 C 12.78125 -10.421875 12.722656 -10.203125 12.671875 -9.984375 C 12.597656 -9.234375 12.921875 -8.894531 13.640625 -8.96875 C 15.597656 -9.300781 17.550781 -10.941406 19.5 -13.890625 Z M 5.6875 -5.234375 C 6.882812 -5.785156 7.722656 -6.734375 8.203125 -8.078125 C 6.203125 -9.347656 4.863281 -11.175781 4.1875 -13.5625 C 3.5625 -12.445312 3.179688 -11.144531 3.046875 -9.65625 C 2.910156 -8.164062 3.054688 -6.929688 3.484375 -5.953125 C 3.921875 -4.984375 4.65625 -4.742188 5.6875 -5.234375 Z M 9.109375 -10.71875 C 9.429688 -11.1875 9.625 -11.769531 9.6875 -12.46875 C 9.75 -13.164062 9.710938 -13.851562 9.578125 -14.53125 C 9.453125 -15.21875 9.273438 -15.753906 9.046875 -16.140625 C 8.816406 -16.535156 8.578125 -16.65625 8.328125 -16.5 C 7.867188 -16.09375 7.613281 -15.507812 7.5625 -14.75 C 7.507812 -13.988281 7.625 -13.226562 7.90625 -12.46875 C 8.1875 -11.707031 8.585938 -11.125 9.109375 -10.71875 Z M 9.109375 -10.71875 "/></g></g></g><g fill="#00bfff" fill-opacity="1"><g transform="translate(199.661891, 212.153511)"><g><path d="M 21 -9.765625 C 22.300781 -11.835938 23.070312 -13.148438 23.3125 -13.703125 C 23.5625 -14.265625 23.757812 -14.238281 23.90625 -13.625 C 24.050781 -13.019531 23.628906 -11.644531 22.640625 -9.5 C 21.660156 -7.363281 20.441406 -5.710938 18.984375 -4.546875 C 17.535156 -3.390625 16.179688 -2.960938 14.921875 -3.265625 C 13.660156 -3.578125 12.757812 -4.457031 12.21875 -5.90625 C 11.675781 -7.351562 11.515625 -9.175781 11.734375 -11.375 C 11.734375 -11.40625 11.75 -11.5 11.78125 -11.65625 C 11.8125 -12.03125 11.875 -12.578125 11.96875 -13.296875 C 12.0625 -14.023438 12.128906 -14.78125 12.171875 -15.5625 C 12.210938 -16.34375 12.1875 -16.984375 12.09375 -17.484375 C 12 -17.992188 11.769531 -18.175781 11.40625 -18.03125 C 10.507812 -17.539062 9.628906 -16.578125 8.765625 -15.140625 C 7.910156 -13.710938 7.132812 -12.210938 6.4375 -10.640625 C 5.75 -9.078125 5.265625 -7.816406 4.984375 -6.859375 C 4.859375 -6.554688 4.742188 -6.234375 4.640625 -5.890625 C 4.492188 -5.453125 4.328125 -5.015625 4.140625 -4.578125 C 3.648438 -3.304688 2.796875 -2.8125 1.578125 -3.09375 C 0.898438 -3.25 0.5 -3.664062 0.375 -4.34375 C 0.34375 -4.863281 0.328125 -5.363281 0.328125 -5.84375 C 0.328125 -6.144531 0.3125 -6.421875 0.28125 -6.671875 C 0.207031 -10.429688 0.113281 -14.21875 0 -18.03125 C 0.03125 -18.46875 0.222656 -18.769531 0.578125 -18.9375 C 0.941406 -19.113281 1.367188 -19.203125 1.859375 -19.203125 C 2.222656 -19.203125 2.570312 -19.097656 2.90625 -18.890625 C 3.238281 -18.691406 3.445312 -18.269531 3.53125 -17.625 C 3.5625 -17.40625 3.578125 -17.1875 3.578125 -16.96875 C 3.609375 -16.84375 3.625 -16.726562 3.625 -16.625 C 3.695312 -16.101562 3.734375 -15.65625 3.734375 -15.28125 C 3.734375 -14.726562 3.769531 -14.347656 3.84375 -14.140625 C 3.925781 -13.941406 4.085938 -13.953125 4.328125 -14.171875 C 4.578125 -14.390625 4.976562 -14.914062 5.53125 -15.75 C 6.5 -17.238281 7.691406 -18.5 9.109375 -19.53125 C 10.421875 -20.457031 11.851562 -20.84375 13.40625 -20.6875 C 14.738281 -20.550781 15.632812 -19.851562 16.09375 -18.59375 C 16.28125 -17.945312 16.375 -17.296875 16.375 -16.640625 C 16.375 -15.992188 16.332031 -15.335938 16.25 -14.671875 C 16.21875 -13.992188 16.164062 -13.300781 16.09375 -12.59375 C 16.039062 -12.375 16 -12.15625 15.96875 -11.9375 C 15.75 -9.507812 15.828125 -7.882812 16.203125 -7.0625 C 16.578125 -6.25 17.144531 -5.976562 17.90625 -6.25 C 18.664062 -6.53125 19.695312 -7.703125 21 -9.765625 Z M 21 -9.765625 "/></g></g></g><g fill="#00bfff" fill-opacity="1"><g transform="translate(222.003961, 212.153511)"><g><path d="M 13.171875 -10.3125 C 12.648438 -9.226562 11.757812 -8.023438 10.5 -6.703125 C 9.238281 -5.378906 7.804688 -4.539062 6.203125 -4.1875 C 4.609375 -3.832031 3.082031 -4.382812 1.625 -5.84375 C 1.0625 -6.488281 0.648438 -7.226562 0.390625 -8.0625 C 0.128906 -8.894531 0.0351562 -9.71875 0.109375 -10.53125 C 0.109375 -10.757812 0.109375 -11.039062 0.109375 -11.375 C 0.109375 -12.238281 0.144531 -13.238281 0.21875 -14.375 C 0.289062 -15.507812 0.457031 -16.53125 0.71875 -17.4375 C 0.988281 -18.351562 1.398438 -18.90625 1.953125 -19.09375 C 3.566406 -19.5 4.441406 -18.941406 4.578125 -17.421875 C 4.578125 -16.929688 4.554688 -16.441406 4.515625 -15.953125 C 4.484375 -15.691406 4.46875 -15.453125 4.46875 -15.234375 C 4.4375 -14.523438 4.40625 -13.816406 4.375 -13.109375 C 4.375 -12.546875 4.347656 -11.984375 4.296875 -11.421875 C 4.253906 -8.972656 4.800781 -7.515625 5.9375 -7.046875 C 7.070312 -6.578125 8.367188 -7.070312 9.828125 -8.53125 C 11.285156 -9.988281 12.238281 -11.195312 12.6875 -12.15625 C 13.132812 -13.125 13.457031 -13.328125 13.65625 -12.765625 C 13.863281 -12.210938 13.703125 -11.394531 13.171875 -10.3125 Z M 4.234375 -24.328125 C 4.015625 -24.140625 3.75 -24.019531 3.4375 -23.96875 C 3.125 -23.914062 2.847656 -23.941406 2.609375 -24.046875 C 2.429688 -24.203125 2.316406 -24.398438 2.265625 -24.640625 C 2.210938 -24.890625 2.1875 -25.179688 2.1875 -25.515625 C 2.1875 -25.585938 2.203125 -25.65625 2.234375 -25.71875 C 2.265625 -26.019531 2.34375 -26.328125 2.46875 -26.640625 C 2.800781 -27.453125 3.503906 -27.820312 4.578125 -27.75 C 4.941406 -27.695312 5.226562 -27.546875 5.4375 -27.296875 C 5.65625 -27.046875 5.707031 -26.75 5.59375 -26.40625 C 5.332031 -25.570312 4.878906 -24.878906 4.234375 -24.328125 Z M 4.234375 -24.328125 "/></g></g></g><g fill="#00bfff" fill-opacity="1"><g transform="translate(234.469827, 212.153511)"><g><path d="M 23.5625 -12.390625 C 24.269531 -12.828125 24.738281 -12.953125 24.96875 -12.765625 C 25.195312 -12.585938 25.050781 -12.140625 24.53125 -11.421875 C 23.007812 -9.597656 21.117188 -7.894531 18.859375 -6.3125 C 16.597656 -4.726562 14.347656 -3.585938 12.109375 -2.890625 C 10.671875 -2.367188 9.128906 -2.109375 7.484375 -2.109375 C 6.335938 -2.078125 5.179688 -2.242188 4.015625 -2.609375 C 1.492188 -3.421875 0.0625 -5.148438 -0.28125 -7.796875 C -0.46875 -9.253906 -0.375 -10.707031 0 -12.15625 C 0.4375 -13.644531 1.148438 -14.945312 2.140625 -16.0625 C 3.128906 -17.1875 4.351562 -18.046875 5.8125 -18.640625 C 7.1875 -19.160156 8.609375 -19.363281 10.078125 -19.25 C 11.554688 -19.144531 12.757812 -18.675781 13.6875 -17.84375 C 13.84375 -17.695312 13.921875 -17.515625 13.921875 -17.296875 C 13.921875 -17.078125 13.875 -16.851562 13.78125 -16.625 C 13.5625 -15.945312 13.25 -15.628906 12.84375 -15.671875 C 12.4375 -15.722656 11.957031 -15.890625 11.40625 -16.171875 C 11 -16.390625 10.546875 -16.59375 10.046875 -16.78125 C 9.554688 -16.96875 9.0625 -17.007812 8.5625 -16.90625 C 7.101562 -16.6875 5.890625 -15.898438 4.921875 -14.546875 C 4.128906 -13.429688 3.59375 -12.1875 3.3125 -10.8125 C 3.03125 -9.445312 3.132812 -8.222656 3.625 -7.140625 C 4.21875 -6.015625 5.1875 -5.375 6.53125 -5.21875 C 7.882812 -5.070312 9.414062 -5.234375 11.125 -5.703125 C 12.832031 -6.171875 14.539062 -6.8125 16.25 -7.625 C 17.957031 -8.445312 19.472656 -9.285156 20.796875 -10.140625 C 22.128906 -10.992188 23.050781 -11.742188 23.5625 -12.390625 Z M 23.5625 -12.390625 "/></g></g></g><g fill="#00bfff" fill-opacity="1"><g transform="translate(257.827446, 212.153511)"><g><path d="M 28.71875 -13.046875 C 28.257812 -11.628906 27.335938 -10 25.953125 -8.15625 C 24.578125 -6.320312 22.859375 -5.140625 20.796875 -4.609375 C 18.734375 -4.085938 16.945312 -4.160156 15.4375 -4.828125 C 13.925781 -5.503906 13.097656 -7.296875 12.953125 -10.203125 C 11.242188 -6.890625 9.613281 -4.765625 8.0625 -3.828125 C 6.507812 -2.898438 4.894531 -2.546875 3.21875 -2.765625 C 1.320312 -3.066406 0.0390625 -3.800781 -0.625 -4.96875 C -1.289062 -6.144531 -1.515625 -7.5 -1.296875 -9.03125 C -1.078125 -10.5625 -0.609375 -12.03125 0.109375 -13.4375 C 0.660156 -14.476562 1.429688 -15.445312 2.421875 -16.34375 C 3.410156 -17.25 4.445312 -17.953125 5.53125 -18.453125 C 6.875 -19.128906 8.222656 -19.453125 9.578125 -19.421875 C 10.929688 -19.390625 12.378906 -18.941406 13.921875 -18.078125 C 13.953125 -18.046875 13.96875 -18.082031 13.96875 -18.1875 C 13.96875 -18.332031 14.003906 -18.519531 14.078125 -18.75 C 14.148438 -18.976562 14.28125 -19.160156 14.46875 -19.296875 C 14.976562 -19.671875 15.578125 -19.859375 16.265625 -19.859375 C 16.960938 -19.859375 17.5 -19.507812 17.875 -18.8125 C 17.945312 -17.914062 17.851562 -16.773438 17.59375 -15.390625 C 17.039062 -12.335938 17.039062 -10.144531 17.59375 -8.8125 C 18.15625 -7.476562 19.140625 -6.851562 20.546875 -6.9375 C 21.960938 -7.03125 23.796875 -8.425781 26.046875 -11.125 C 28.296875 -13.832031 29.1875 -14.472656 28.71875 -13.046875 Z M 3.734375 -5.890625 C 4.515625 -5.328125 5.40625 -5.398438 6.40625 -6.109375 C 7.414062 -6.828125 8.382812 -7.835938 9.3125 -9.140625 C 10.25 -10.441406 11.035156 -11.742188 11.671875 -13.046875 C 12.304688 -14.347656 12.65625 -15.316406 12.71875 -15.953125 C 10.820312 -16.960938 9.195312 -17.132812 7.84375 -16.46875 C 6.488281 -15.800781 5.410156 -14.707031 4.609375 -13.1875 C 3.804688 -11.675781 3.328125 -10.203125 3.171875 -8.765625 C 3.023438 -7.335938 3.210938 -6.378906 3.734375 -5.890625 Z M 3.734375 -5.890625 "/></g></g></g><g fill="#00bfff" fill-opacity="1"><g transform="translate(284.739485, 212.153511)"><g><path d="M 24.875 -12.328125 C 26.320312 -13.929688 27.082031 -14.546875 27.15625 -14.171875 C 27.226562 -13.796875 26.914062 -12.925781 26.21875 -11.5625 C 25.53125 -10.195312 24.457031 -9.035156 23 -8.078125 C 21.9375 -7.410156 21.019531 -6.960938 20.25 -6.734375 C 19.476562 -6.515625 18.78125 -6.382812 18.15625 -6.34375 C 16.914062 -6.28125 15.96875 -6.632812 15.3125 -7.40625 C 14.664062 -8.1875 14.210938 -9.191406 13.953125 -10.421875 C 13.703125 -11.648438 13.519531 -12.914062 13.40625 -14.21875 C 13.289062 -15.050781 13.179688 -15.796875 13.078125 -16.453125 C 12.921875 -17.503906 12.617188 -18.082031 12.171875 -18.1875 C 11.722656 -18.300781 11.035156 -17.628906 10.109375 -16.171875 C 9.140625 -14.617188 8.289062 -12.898438 7.5625 -11.015625 C 6.832031 -9.140625 6.191406 -7.304688 5.640625 -5.515625 C 5.609375 -5.441406 5.570312 -5.347656 5.53125 -5.234375 C 5.414062 -4.972656 5.320312 -4.707031 5.25 -4.4375 C 5.03125 -3.695312 4.769531 -2.972656 4.46875 -2.265625 C 4.21875 -1.671875 3.78125 -1.28125 3.15625 -1.09375 C 2.539062 -0.90625 1.894531 -0.945312 1.21875 -1.21875 C 0.78125 -1.40625 0.484375 -1.71875 0.328125 -2.15625 C 0.109375 -2.832031 0.0351562 -3.519531 0.109375 -4.21875 C 0.109375 -4.300781 0.109375 -4.359375 0.109375 -4.390625 C 0.253906 -7.335938 0.273438 -12.238281 0.171875 -19.09375 C 0.0859375 -24.5625 0.046875 -30.441406 0.046875 -36.734375 C 0.046875 -43.035156 0.207031 -48.976562 0.53125 -54.5625 C 0.851562 -60.144531 1.40625 -64.613281 2.1875 -67.96875 C 2.519531 -69.1875 3.078125 -70.28125 3.859375 -71.25 C 4.640625 -72.226562 5.503906 -72.765625 6.453125 -72.859375 C 7.398438 -72.953125 8.285156 -72.304688 9.109375 -70.921875 C 9.671875 -69.734375 10.019531 -68.472656 10.15625 -67.140625 C 10.53125 -63.171875 10.195312 -57.082031 9.15625 -48.875 C 8.113281 -40.664062 7.023438 -33.476562 5.890625 -27.3125 C 4.753906 -21.15625 4.1875 -16.015625 4.1875 -11.890625 C 4.5625 -12.515625 4.9375 -13.179688 5.3125 -13.890625 C 5.832031 -14.941406 6.414062 -15.988281 7.0625 -17.03125 C 7.71875 -18.070312 8.488281 -18.953125 9.375 -19.671875 C 10.269531 -20.398438 11.351562 -20.859375 12.625 -21.046875 C 13.488281 -21.179688 14.363281 -21.117188 15.25 -20.859375 C 16.132812 -20.609375 16.726562 -19.992188 17.03125 -19.015625 C 17.40625 -17.304688 17.535156 -15.488281 17.421875 -13.5625 C 17.421875 -11.507812 17.773438 -10.210938 18.484375 -9.671875 C 19.191406 -9.128906 20.070312 -9.035156 21.125 -9.390625 C 22.1875 -9.742188 23.4375 -10.722656 24.875 -12.328125 Z M 5.921875 -64.828125 C 5.734375 -62.710938 5.519531 -59.175781 5.28125 -54.21875 C 5.039062 -49.269531 4.835938 -44.304688 4.671875 -39.328125 C 4.503906 -34.347656 4.421875 -30.210938 4.421875 -26.921875 C 4.828125 -29.898438 5.316406 -33.78125 5.890625 -38.5625 C 6.460938 -43.34375 6.972656 -48.257812 7.421875 -53.3125 C 7.867188 -58.375 8.09375 -62.175781 8.09375 -64.71875 C 8.0625 -66.0625 7.96875 -67.054688 7.8125 -67.703125 C 7.664062 -68.359375 7.414062 -68.59375 7.0625 -68.40625 C 6.707031 -68.21875 6.4375 -67.742188 6.25 -66.984375 C 6.0625 -66.222656 5.953125 -65.503906 5.921875 -64.828125 Z M 5.921875 -64.828125 "/></g></g></g><g clip-path="url(#bb31f22c68)"><g clip-path="url(#18fca4ed59)"><g clip-path="url(#14c2ec2cb1)"><path fill="#00bfff" d="M 122.574219 168.832031 C 122.167969 168.402344 121.496094 168.378906 121.0625 168.785156 C 120.632812 169.1875 120.609375 169.863281 121.015625 170.296875 C 123.53125 172.984375 125.75 175.039062 128.113281 176.679688 L 128.183594 176.722656 C 130.539062 178.351562 133.015625 179.550781 136.035156 180.527344 C 155.394531 186.777344 180.945312 178.375 205.855469 170.179688 C 240.480469 158.789062 273.847656 147.8125 286.050781 178.191406 C 286.269531 178.738281 286.894531 179.007812 287.441406 178.789062 C 287.992188 178.570312 288.257812 177.945312 288.039062 177.398438 C 275.085938 145.160156 240.789062 156.441406 205.191406 168.152344 C 180.605469 176.242188 155.386719 184.539062 136.683594 178.5 C 133.871094 177.589844 131.570312 176.476562 129.390625 174.972656 L 129.332031 174.925781 C 127.117188 173.390625 125 171.425781 122.578125 168.835938 Z M 122.574219 168.832031 " fill-opacity="1" fill-rule="evenodd"/></g></g></g></svg>