<svg xmlns="http://www.w3.org/2000/svg" xmlns:xlink="http://www.w3.org/1999/xlink" width="500" zoomAndPan="magnify" viewBox="0 0 375 374.999991" height="500" preserveAspectRatio="xMidYMid meet" version="1.0"><defs><g/></defs><g fill="#0cc0df" fill-opacity="1"><g transform="translate(117.715242, 249.047914)"><g><path d="M 2.484375 -2.328125 C 2.066406 -2.429688 1.753906 -2.847656 1.546875 -3.578125 C 1.546875 -4.097656 1.648438 -4.769531 1.859375 -5.59375 C 2.273438 -8.394531 3.207031 -12.125 4.65625 -16.78125 C 5.175781 -18.445312 5.539062 -20.265625 5.75 -22.234375 C 6.164062 -32.179688 6.582031 -39.742188 7 -44.921875 C 7.207031 -47.722656 7.566406 -51.632812 8.078125 -56.65625 C 8.597656 -61.6875 8.910156 -64.875 9.015625 -66.21875 L 10.578125 -81.765625 C 11.710938 -95.648438 13.160156 -106.632812 14.921875 -114.71875 L 15.703125 -118.296875 C 15.804688 -118.503906 15.9375 -118.816406 16.09375 -119.234375 C 16.25 -119.648438 16.328125 -119.910156 16.328125 -120.015625 C 16.429688 -120.316406 16.6875 -120.46875 17.09375 -120.46875 C 17.40625 -120.46875 17.769531 -120.265625 18.1875 -119.859375 C 18.289062 -119.546875 18.34375 -118.816406 18.34375 -117.671875 C 18.03125 -115.597656 17.664062 -112.488281 17.25 -108.34375 C 16.425781 -101.613281 15.859375 -96.28125 15.546875 -92.34375 C 15.234375 -89.75 14.84375 -85.804688 14.375 -80.515625 C 13.914062 -75.234375 13.582031 -71.25 13.375 -68.5625 C 11.8125 -53.53125 10.773438 -42.90625 10.265625 -36.6875 L 10.265625 -34.203125 C 10.773438 -34.515625 11.238281 -35.34375 11.65625 -36.6875 C 14.5625 -44.769531 20.414062 -59.585938 29.21875 -81.140625 C 32.957031 -90.054688 35.914062 -96.691406 38.09375 -101.046875 C 40.78125 -106.429688 43.472656 -110.9375 46.171875 -114.5625 C 46.691406 -115.289062 47.46875 -116.273438 48.5 -117.515625 C 50.675781 -119.484375 52.078125 -119.070312 52.703125 -116.28125 C 52.910156 -115.238281 53.015625 -114.410156 53.015625 -113.796875 C 53.015625 -110.265625 52.910156 -107.671875 52.703125 -106.015625 C 52.285156 -101.554688 51.039062 -92.957031 48.96875 -80.21875 C 47.101562 -68.914062 45.597656 -59.691406 44.453125 -52.546875 C 44.253906 -51.085938 44 -48.957031 43.6875 -46.15625 C 43.375 -43.363281 43.113281 -41.242188 42.90625 -39.796875 C 43.320312 -40.109375 43.785156 -40.832031 44.296875 -41.96875 C 46.066406 -47.5625 47.882812 -52.378906 49.75 -56.421875 C 50.78125 -58.804688 52.019531 -60.984375 53.46875 -62.953125 C 54.09375 -63.890625 54.664062 -64.515625 55.1875 -64.828125 C 55.707031 -65.335938 56.300781 -65.539062 56.96875 -65.4375 C 57.644531 -65.34375 58.140625 -64.929688 58.453125 -64.203125 C 58.867188 -62.960938 59.128906 -62.03125 59.234375 -61.40625 C 59.535156 -59.332031 59.894531 -55.859375 60.3125 -50.984375 C 60.9375 -46.429688 61.5625 -43.066406 62.1875 -40.890625 C 62.59375 -39.328125 63.210938 -37.925781 64.046875 -36.6875 C 65.078125 -34.820312 66.53125 -33.523438 68.40625 -32.796875 C 69.851562 -32.179688 71.300781 -32.078125 72.75 -32.484375 C 75.550781 -33.109375 78.554688 -34.613281 81.765625 -37 C 85.703125 -40.207031 89.070312 -43.421875 91.875 -46.640625 C 92.1875 -46.953125 92.492188 -47.285156 92.796875 -47.640625 C 93.109375 -48.003906 93.5 -48.394531 93.96875 -48.8125 C 94.4375 -49.226562 94.773438 -49.539062 94.984375 -49.75 C 95.191406 -49.75 95.347656 -49.695312 95.453125 -49.59375 C 95.554688 -49.488281 95.609375 -49.28125 95.609375 -48.96875 L 94.515625 -47.5625 C 94.304688 -47.351562 93.757812 -46.707031 92.875 -45.625 C 92 -44.539062 91.40625 -43.84375 91.09375 -43.53125 C 90.78125 -43.21875 90.207031 -42.59375 89.375 -41.65625 C 88.550781 -40.726562 87.851562 -40.03125 87.28125 -39.5625 C 86.71875 -39.09375 85.992188 -38.492188 85.109375 -37.765625 C 84.234375 -37.046875 83.328125 -36.347656 82.390625 -35.671875 C 81.453125 -35.003906 80.46875 -34.359375 79.4375 -33.734375 C 77.570312 -32.585938 75.914062 -31.757812 74.46875 -31.25 C 69.695312 -29.59375 65.859375 -30.785156 62.953125 -34.828125 C 61.921875 -36.273438 61.039062 -38.140625 60.3125 -40.421875 C 59.695312 -42.804688 59.078125 -46.378906 58.453125 -51.140625 C 58.035156 -55.492188 57.671875 -58.8125 57.359375 -61.09375 C 57.359375 -61.40625 57.253906 -61.875 57.046875 -62.5 C 56.835938 -63.21875 56.425781 -63.367188 55.8125 -62.953125 C 54.769531 -61.503906 53.988281 -60.363281 53.46875 -59.53125 C 51.601562 -56.53125 49.738281 -52.4375 47.875 -47.25 C 47.363281 -45.800781 46.640625 -43.625 45.703125 -40.71875 C 44.765625 -37.820312 44.039062 -35.648438 43.53125 -34.203125 C 43.53125 -34.097656 43.476562 -33.863281 43.375 -33.5 C 43.269531 -33.132812 43.164062 -32.875 43.0625 -32.71875 C 42.957031 -32.5625 42.800781 -32.40625 42.59375 -32.25 C 42.382812 -32.09375 42.125 -32.066406 41.8125 -32.171875 C 41.5 -32.171875 41.289062 -32.273438 41.1875 -32.484375 C 41.09375 -32.691406 41.019531 -32.875 40.96875 -33.03125 C 40.914062 -33.1875 40.914062 -33.445312 40.96875 -33.8125 C 41.019531 -34.175781 41.046875 -34.410156 41.046875 -34.515625 C 40.941406 -36.691406 41.25 -41.144531 41.96875 -47.875 C 42.90625 -55.238281 44.617188 -66.175781 47.109375 -80.6875 C 48.453125 -88.5625 49.691406 -96.847656 50.828125 -105.546875 C 51.347656 -109.179688 51.398438 -112.5 50.984375 -115.5 C 50.984375 -116.019531 50.828125 -116.382812 50.515625 -116.59375 C 50.210938 -116.695312 49.800781 -116.488281 49.28125 -115.96875 C 48.757812 -115.445312 48.082031 -114.671875 47.25 -113.640625 C 44.351562 -109.910156 41.300781 -104.726562 38.09375 -98.09375 C 36.320312 -94.257812 32.070312 -84.363281 25.34375 -68.40625 C 20.050781 -55.550781 15.4375 -43.578125 11.5 -32.484375 C 10.15625 -28.859375 9.429688 -25.441406 9.328125 -22.234375 C 9.015625 -16.222656 7.71875 -10.570312 5.4375 -5.28125 C 5.019531 -4.039062 4.503906 -3.160156 3.890625 -2.640625 C 3.472656 -2.222656 3.003906 -2.117188 2.484375 -2.328125 Z M 2.484375 -2.328125 "/></g></g></g><g fill="#0cc0df" fill-opacity="1"><g transform="translate(210.207519, 249.047914)"><g><path d="M 18.8125 0 C 13.519531 -0.519531 9.632812 -2.75 7.15625 -6.6875 C 5.289062 -9.582031 4.046875 -12.847656 3.421875 -16.484375 C 1.765625 -24.359375 1.191406 -32.59375 1.703125 -41.1875 C 2.640625 -53.414062 5.695312 -65.75 10.875 -78.1875 C 13.363281 -84.195312 16.628906 -89.742188 20.671875 -94.828125 C 23.679688 -98.867188 27.722656 -102.492188 32.796875 -105.703125 C 34.554688 -106.847656 36.367188 -107.628906 38.234375 -108.046875 C 39.378906 -108.242188 40.414062 -108.140625 41.34375 -107.734375 C 41.863281 -107.523438 42.28125 -107.109375 42.59375 -106.484375 C 43.007812 -105.554688 42.800781 -105.09375 41.96875 -105.09375 C 39.582031 -105.289062 36.628906 -104.148438 33.109375 -101.671875 C 28.960938 -98.972656 25.078125 -94.984375 21.453125 -89.703125 C 16.578125 -82.335938 12.535156 -73.785156 9.328125 -64.046875 C 6.015625 -53.367188 4.304688 -43.472656 4.203125 -34.359375 C 3.992188 -26.992188 4.5625 -20.617188 5.90625 -15.234375 C 6.320312 -13.367188 7.148438 -11.140625 8.390625 -8.546875 C 11.296875 -3.160156 15.804688 -0.984375 21.921875 -2.015625 C 25.546875 -2.535156 28.8125 -3.78125 31.71875 -5.75 C 35.96875 -8.863281 39.382812 -12.285156 41.96875 -16.015625 C 44.664062 -19.847656 49.585938 -28.035156 56.734375 -40.578125 C 58.503906 -43.265625 60.007812 -45.851562 61.25 -48.34375 L 61.875 -48.96875 L 62.34375 -49.28125 C 62.539062 -49.070312 62.640625 -48.863281 62.640625 -48.65625 C 62.234375 -47.625 61.875 -46.898438 61.5625 -46.484375 C 55.34375 -35.597656 50.160156 -26.632812 46.015625 -19.59375 C 42.285156 -13.269531 37.414062 -8.085938 31.40625 -4.046875 C 27.875 -1.660156 23.675781 -0.3125 18.8125 0 Z M 18.8125 0 "/></g></g></g><g fill="#ffffff" fill-opacity="1"><g transform="translate(82.389337, 194.249987)"><g><path d="M 2.1875 -16.09375 L 3.796875 -16.09375 L 8.515625 -6.90625 L 8.625 -6.90625 L 13.34375 -16.09375 L 14.953125 -16.09375 L 14.953125 0 L 13.34375 0 L 13.34375 -12.765625 L 13.21875 -12.765625 L 9.203125 -4.828125 L 7.9375 -4.828125 L 3.90625 -12.765625 L 3.796875 -12.765625 L 3.796875 0 L 2.1875 0 Z M 2.1875 -16.09375 "/></g></g></g><g fill="#ffffff" fill-opacity="1"><g transform="translate(102.531619, 194.249987)"><g><path d="M 8.046875 0.234375 C 7.160156 0.234375 6.3125 0.046875 5.5 -0.328125 C 4.695312 -0.703125 3.988281 -1.242188 3.375 -1.953125 C 2.769531 -2.671875 2.285156 -3.546875 1.921875 -4.578125 C 1.554688 -5.609375 1.375 -6.765625 1.375 -8.046875 C 1.375 -9.335938 1.554688 -10.492188 1.921875 -11.515625 C 2.285156 -12.546875 2.769531 -13.414062 3.375 -14.125 C 3.988281 -14.84375 4.695312 -15.390625 5.5 -15.765625 C 6.3125 -16.140625 7.160156 -16.328125 8.046875 -16.328125 C 8.941406 -16.328125 9.789062 -16.140625 10.59375 -15.765625 C 11.394531 -15.390625 12.101562 -14.84375 12.71875 -14.125 C 13.332031 -13.414062 13.816406 -12.546875 14.171875 -11.515625 C 14.535156 -10.492188 14.71875 -9.335938 14.71875 -8.046875 C 14.71875 -6.765625 14.535156 -5.609375 14.171875 -4.578125 C 13.816406 -3.546875 13.332031 -2.671875 12.71875 -1.953125 C 12.101562 -1.242188 11.394531 -0.703125 10.59375 -0.328125 C 9.789062 0.046875 8.941406 0.234375 8.046875 0.234375 Z M 8.046875 -1.265625 C 8.703125 -1.265625 9.335938 -1.410156 9.953125 -1.703125 C 10.566406 -2.003906 11.109375 -2.441406 11.578125 -3.015625 C 12.046875 -3.597656 12.414062 -4.3125 12.6875 -5.15625 C 12.96875 -6 13.109375 -6.960938 13.109375 -8.046875 C 13.109375 -9.140625 12.96875 -10.109375 12.6875 -10.953125 C 12.414062 -11.796875 12.046875 -12.503906 11.578125 -13.078125 C 11.109375 -13.648438 10.566406 -14.082031 9.953125 -14.375 C 9.335938 -14.675781 8.703125 -14.828125 8.046875 -14.828125 C 7.390625 -14.828125 6.753906 -14.675781 6.140625 -14.375 C 5.523438 -14.082031 4.984375 -13.648438 4.515625 -13.078125 C 4.046875 -12.503906 3.671875 -11.796875 3.390625 -10.953125 C 3.117188 -10.109375 2.984375 -9.140625 2.984375 -8.046875 C 2.984375 -6.960938 3.117188 -6 3.390625 -5.15625 C 3.671875 -4.3125 4.046875 -3.597656 4.515625 -3.015625 C 4.984375 -2.441406 5.523438 -2.003906 6.140625 -1.703125 C 6.753906 -1.410156 7.390625 -1.265625 8.046875 -1.265625 Z M 8.046875 -1.265625 "/></g></g></g><g fill="#ffffff" fill-opacity="1"><g transform="translate(121.639251, 194.249987)"><g><path d="M 2.1875 -16.09375 L 3.6875 -16.09375 L 11.84375 -3.21875 L 11.953125 -3.21875 L 11.953125 -16.09375 L 13.5625 -16.09375 L 13.5625 0 L 12.078125 0 L 3.90625 -12.875 L 3.796875 -12.875 L 3.796875 0 L 2.1875 0 Z M 2.1875 -16.09375 "/></g></g></g><g fill="#ffffff" fill-opacity="1"><g transform="translate(140.401993, 194.249987)"><g><path d="M 2.1875 -16.09375 L 3.796875 -16.09375 L 3.796875 0 L 2.1875 0 Z M 2.1875 -16.09375 "/></g></g></g><g fill="#ffffff" fill-opacity="1"><g transform="translate(149.393026, 194.249987)"><g><path d="M 8.046875 0.234375 C 7.160156 0.234375 6.3125 0.046875 5.5 -0.328125 C 4.695312 -0.703125 3.988281 -1.242188 3.375 -1.953125 C 2.769531 -2.671875 2.285156 -3.546875 1.921875 -4.578125 C 1.554688 -5.609375 1.375 -6.765625 1.375 -8.046875 C 1.375 -9.335938 1.554688 -10.492188 1.921875 -11.515625 C 2.285156 -12.546875 2.769531 -13.414062 3.375 -14.125 C 3.988281 -14.84375 4.695312 -15.390625 5.5 -15.765625 C 6.3125 -16.140625 7.160156 -16.328125 8.046875 -16.328125 C 8.878906 -16.328125 9.609375 -16.191406 10.234375 -15.921875 C 10.859375 -15.660156 11.390625 -15.375 11.828125 -15.0625 C 12.328125 -14.675781 12.753906 -14.253906 13.109375 -13.796875 L 11.953125 -12.875 C 11.691406 -13.25 11.378906 -13.570312 11.015625 -13.84375 C 10.691406 -14.09375 10.296875 -14.316406 9.828125 -14.515625 C 9.359375 -14.722656 8.804688 -14.828125 8.171875 -14.828125 C 7.472656 -14.828125 6.8125 -14.675781 6.1875 -14.375 C 5.5625 -14.082031 5.015625 -13.648438 4.546875 -13.078125 C 4.078125 -12.503906 3.695312 -11.796875 3.40625 -10.953125 C 3.125 -10.109375 2.984375 -9.140625 2.984375 -8.046875 C 2.984375 -6.960938 3.125 -6 3.40625 -5.15625 C 3.695312 -4.3125 4.078125 -3.597656 4.546875 -3.015625 C 5.015625 -2.441406 5.5625 -2.003906 6.1875 -1.703125 C 6.8125 -1.410156 7.472656 -1.265625 8.171875 -1.265625 C 8.890625 -1.265625 9.507812 -1.394531 10.03125 -1.65625 C 10.550781 -1.914062 10.976562 -2.207031 11.3125 -2.53125 C 11.707031 -2.894531 12.039062 -3.316406 12.3125 -3.796875 L 13.453125 -2.765625 C 13.085938 -2.191406 12.644531 -1.691406 12.125 -1.265625 C 11.675781 -0.878906 11.113281 -0.53125 10.4375 -0.21875 C 9.769531 0.0820312 8.972656 0.234375 8.046875 0.234375 Z M 8.046875 0.234375 "/></g></g></g><g fill="#ffffff" fill-opacity="1"><g transform="translate(166.546317, 194.249987)"><g><path d="M 6.09375 -16.09375 L 7.703125 -16.09375 L 13.109375 0 L 11.5 0 L 10.234375 -3.796875 L 3.5625 -3.796875 L 2.296875 0 L 0.6875 0 Z M 9.78125 -5.296875 L 7.015625 -13.453125 L 6.78125 -13.453125 L 4.03125 -5.296875 Z M 9.78125 -5.296875 "/></g></g></g><g fill="#ffffff" fill-opacity="1"><g transform="translate(183.354717, 194.249987)"><g><path d="M 2.1875 -16.09375 L 3.796875 -16.09375 L 3.796875 -11.046875 L 11.609375 -11.046875 L 11.609375 -16.09375 L 13.21875 -16.09375 L 13.21875 0 L 11.609375 0 L 11.609375 -9.546875 L 3.796875 -9.546875 L 3.796875 0 L 2.1875 0 Z M 2.1875 -16.09375 "/></g></g></g><g fill="#ffffff" fill-opacity="1"><g transform="translate(201.772585, 194.249987)"><g/></g></g><g fill="#ffffff" fill-opacity="1"><g transform="translate(208.924249, 194.249987)"><g><path d="M 8.046875 0.234375 C 7.160156 0.234375 6.3125 0.046875 5.5 -0.328125 C 4.695312 -0.703125 3.988281 -1.242188 3.375 -1.953125 C 2.769531 -2.671875 2.285156 -3.546875 1.921875 -4.578125 C 1.554688 -5.609375 1.375 -6.765625 1.375 -8.046875 C 1.375 -9.335938 1.554688 -10.492188 1.921875 -11.515625 C 2.285156 -12.546875 2.769531 -13.414062 3.375 -14.125 C 3.988281 -14.84375 4.695312 -15.390625 5.5 -15.765625 C 6.3125 -16.140625 7.160156 -16.328125 8.046875 -16.328125 C 8.878906 -16.328125 9.609375 -16.191406 10.234375 -15.921875 C 10.859375 -15.660156 11.390625 -15.375 11.828125 -15.0625 C 12.328125 -14.675781 12.753906 -14.253906 13.109375 -13.796875 L 11.953125 -12.875 C 11.691406 -13.25 11.378906 -13.570312 11.015625 -13.84375 C 10.691406 -14.09375 10.296875 -14.316406 9.828125 -14.515625 C 9.359375 -14.722656 8.804688 -14.828125 8.171875 -14.828125 C 7.472656 -14.828125 6.8125 -14.675781 6.1875 -14.375 C 5.5625 -14.082031 5.015625 -13.648438 4.546875 -13.078125 C 4.078125 -12.503906 3.695312 -11.796875 3.40625 -10.953125 C 3.125 -10.109375 2.984375 -9.140625 2.984375 -8.046875 C 2.984375 -6.960938 3.125 -6 3.40625 -5.15625 C 3.695312 -4.3125 4.078125 -3.597656 4.546875 -3.015625 C 5.015625 -2.441406 5.5625 -2.003906 6.1875 -1.703125 C 6.8125 -1.410156 7.472656 -1.265625 8.171875 -1.265625 C 8.890625 -1.265625 9.507812 -1.394531 10.03125 -1.65625 C 10.550781 -1.914062 10.976562 -2.207031 11.3125 -2.53125 C 11.707031 -2.894531 12.039062 -3.316406 12.3125 -3.796875 L 13.453125 -2.765625 C 13.085938 -2.191406 12.644531 -1.691406 12.125 -1.265625 C 11.675781 -0.878906 11.113281 -0.53125 10.4375 -0.21875 C 9.769531 0.0820312 8.972656 0.234375 8.046875 0.234375 Z M 8.046875 0.234375 "/></g></g></g><g fill="#ffffff" fill-opacity="1"><g transform="translate(226.077545, 194.249987)"><g><path d="M 2.1875 -16.09375 L 3.796875 -16.09375 L 3.796875 -1.5 L 10.6875 -1.5 L 10.6875 0 L 2.1875 0 Z M 2.1875 -16.09375 "/></g></g></g><g fill="#ffffff" fill-opacity="1"><g transform="translate(240.241828, 194.249987)"><g><path d="M 8.046875 0.234375 C 7.160156 0.234375 6.3125 0.046875 5.5 -0.328125 C 4.695312 -0.703125 3.988281 -1.242188 3.375 -1.953125 C 2.769531 -2.671875 2.285156 -3.546875 1.921875 -4.578125 C 1.554688 -5.609375 1.375 -6.765625 1.375 -8.046875 C 1.375 -9.335938 1.554688 -10.492188 1.921875 -11.515625 C 2.285156 -12.546875 2.769531 -13.414062 3.375 -14.125 C 3.988281 -14.84375 4.695312 -15.390625 5.5 -15.765625 C 6.3125 -16.140625 7.160156 -16.328125 8.046875 -16.328125 C 8.941406 -16.328125 9.789062 -16.140625 10.59375 -15.765625 C 11.394531 -15.390625 12.101562 -14.84375 12.71875 -14.125 C 13.332031 -13.414062 13.816406 -12.546875 14.171875 -11.515625 C 14.535156 -10.492188 14.71875 -9.335938 14.71875 -8.046875 C 14.71875 -6.765625 14.535156 -5.609375 14.171875 -4.578125 C 13.816406 -3.546875 13.332031 -2.671875 12.71875 -1.953125 C 12.101562 -1.242188 11.394531 -0.703125 10.59375 -0.328125 C 9.789062 0.046875 8.941406 0.234375 8.046875 0.234375 Z M 8.046875 -1.265625 C 8.703125 -1.265625 9.335938 -1.410156 9.953125 -1.703125 C 10.566406 -2.003906 11.109375 -2.441406 11.578125 -3.015625 C 12.046875 -3.597656 12.414062 -4.3125 12.6875 -5.15625 C 12.96875 -6 13.109375 -6.960938 13.109375 -8.046875 C 13.109375 -9.140625 12.96875 -10.109375 12.6875 -10.953125 C 12.414062 -11.796875 12.046875 -12.503906 11.578125 -13.078125 C 11.109375 -13.648438 10.566406 -14.082031 9.953125 -14.375 C 9.335938 -14.675781 8.703125 -14.828125 8.046875 -14.828125 C 7.390625 -14.828125 6.753906 -14.675781 6.140625 -14.375 C 5.523438 -14.082031 4.984375 -13.648438 4.515625 -13.078125 C 4.046875 -12.503906 3.671875 -11.796875 3.390625 -10.953125 C 3.117188 -10.109375 2.984375 -9.140625 2.984375 -8.046875 C 2.984375 -6.960938 3.117188 -6 3.390625 -5.15625 C 3.671875 -4.3125 4.046875 -3.597656 4.515625 -3.015625 C 4.984375 -2.441406 5.523438 -2.003906 6.140625 -1.703125 C 6.753906 -1.410156 7.390625 -1.265625 8.046875 -1.265625 Z M 8.046875 -1.265625 "/></g></g></g><g fill="#ffffff" fill-opacity="1"><g transform="translate(259.349455, 194.249987)"><g><path d="M 7.8125 0.234375 C 6.988281 0.234375 6.226562 0.0976562 5.53125 -0.171875 C 4.832031 -0.441406 4.238281 -0.816406 3.75 -1.296875 C 3.257812 -1.785156 2.875 -2.359375 2.59375 -3.015625 C 2.320312 -3.671875 2.1875 -4.390625 2.1875 -5.171875 L 2.1875 -16.09375 L 3.796875 -16.09375 L 3.796875 -5.171875 C 3.796875 -4.585938 3.890625 -4.054688 4.078125 -3.578125 C 4.273438 -3.109375 4.546875 -2.703125 4.890625 -2.359375 C 5.242188 -2.015625 5.671875 -1.742188 6.171875 -1.546875 C 6.671875 -1.359375 7.21875 -1.265625 7.8125 -1.265625 C 8.414062 -1.265625 8.96875 -1.359375 9.46875 -1.546875 C 9.96875 -1.742188 10.390625 -2.015625 10.734375 -2.359375 C 11.085938 -2.703125 11.359375 -3.109375 11.546875 -3.578125 C 11.742188 -4.054688 11.84375 -4.585938 11.84375 -5.171875 L 11.84375 -16.09375 L 13.453125 -16.09375 L 13.453125 -5.171875 C 13.453125 -4.390625 13.3125 -3.671875 13.03125 -3.015625 C 12.757812 -2.359375 12.378906 -1.785156 11.890625 -1.296875 C 11.398438 -0.816406 10.804688 -0.441406 10.109375 -0.171875 C 9.410156 0.0976562 8.644531 0.234375 7.8125 0.234375 Z M 7.8125 0.234375 "/></g></g></g><g fill="#ffffff" fill-opacity="1"><g transform="translate(277.997235, 194.249987)"><g><path d="M 2.1875 -15.640625 C 2.539062 -15.765625 2.9375 -15.878906 3.375 -15.984375 C 3.757812 -16.054688 4.21875 -16.128906 4.75 -16.203125 C 5.28125 -16.285156 5.882812 -16.328125 6.5625 -16.328125 C 7.445312 -16.328125 8.289062 -16.140625 9.09375 -15.765625 C 9.894531 -15.390625 10.601562 -14.84375 11.21875 -14.125 C 11.832031 -13.414062 12.316406 -12.546875 12.671875 -11.515625 C 13.035156 -10.492188 13.21875 -9.335938 13.21875 -8.046875 C 13.21875 -6.773438 13.039062 -5.640625 12.6875 -4.640625 C 12.34375 -3.648438 11.867188 -2.804688 11.265625 -2.109375 C 10.671875 -1.421875 9.96875 -0.894531 9.15625 -0.53125 C 8.34375 -0.175781 7.476562 0 6.5625 0 L 2.1875 0 Z M 6.5625 -1.5 C 7.25 -1.5 7.898438 -1.640625 8.515625 -1.921875 C 9.128906 -2.203125 9.664062 -2.617188 10.125 -3.171875 C 10.582031 -3.722656 10.941406 -4.410156 11.203125 -5.234375 C 11.472656 -6.054688 11.609375 -6.992188 11.609375 -8.046875 C 11.609375 -9.140625 11.46875 -10.109375 11.1875 -10.953125 C 10.90625 -11.796875 10.519531 -12.503906 10.03125 -13.078125 C 9.550781 -13.648438 8.992188 -14.082031 8.359375 -14.375 C 7.722656 -14.675781 7.046875 -14.828125 6.328125 -14.828125 C 5.941406 -14.828125 5.59375 -14.804688 5.28125 -14.765625 C 4.976562 -14.722656 4.722656 -14.671875 4.515625 -14.609375 C 4.242188 -14.546875 4.003906 -14.46875 3.796875 -14.375 L 3.796875 -1.5 Z M 6.5625 -1.5 "/></g></g></g></svg>