<svg xmlns="http://www.w3.org/2000/svg" xmlns:xlink="http://www.w3.org/1999/xlink" width="500" zoomAndPan="magnify" viewBox="0 0 375 374.999991" height="500" preserveAspectRatio="xMidYMid meet" version="1.0"><defs><g/></defs><g fill="#0cc0df" fill-opacity="1"><g transform="translate(102.615233, 242.42659)"><g><path d="M 2.78125 -2.609375 C 2.3125 -2.722656 1.960938 -3.1875 1.734375 -4 C 1.734375 -4.570312 1.847656 -5.320312 2.078125 -6.25 C 2.546875 -9.375 3.585938 -13.539062 5.203125 -18.75 C 5.785156 -20.601562 6.191406 -22.628906 6.421875 -24.828125 C 6.878906 -35.929688 7.34375 -44.375 7.8125 -50.15625 C 8.039062 -53.28125 8.441406 -57.648438 9.015625 -63.265625 C 9.597656 -68.878906 9.945312 -72.4375 10.0625 -73.9375 L 11.796875 -91.296875 C 13.078125 -106.804688 14.695312 -119.070312 16.65625 -128.09375 L 17.53125 -132.09375 C 17.644531 -132.320312 17.785156 -132.664062 17.953125 -133.125 C 18.128906 -133.59375 18.21875 -133.882812 18.21875 -134 C 18.34375 -134.34375 18.632812 -134.515625 19.09375 -134.515625 C 19.4375 -134.515625 19.84375 -134.285156 20.3125 -133.828125 C 20.425781 -133.484375 20.484375 -132.675781 20.484375 -131.40625 C 20.140625 -129.082031 19.734375 -125.609375 19.265625 -120.984375 C 18.335938 -113.460938 17.703125 -107.503906 17.359375 -103.109375 C 17.015625 -100.210938 16.582031 -95.8125 16.0625 -89.90625 C 15.539062 -84.007812 15.160156 -79.554688 14.921875 -76.546875 C 13.191406 -59.765625 12.035156 -47.90625 11.453125 -40.96875 L 11.453125 -38.1875 C 12.035156 -38.53125 12.554688 -39.457031 13.015625 -40.96875 C 16.253906 -49.988281 22.789062 -66.535156 32.625 -90.609375 C 36.789062 -100.554688 40.09375 -107.960938 42.53125 -112.828125 C 45.539062 -118.847656 48.546875 -123.878906 51.546875 -127.921875 C 52.128906 -128.734375 53 -129.832031 54.15625 -131.21875 C 56.582031 -133.414062 58.144531 -132.957031 58.84375 -129.84375 C 59.070312 -128.675781 59.1875 -127.75 59.1875 -127.0625 C 59.1875 -123.125 59.070312 -120.226562 58.84375 -118.375 C 58.382812 -113.40625 56.992188 -103.800781 54.671875 -89.5625 C 52.585938 -76.945312 50.910156 -66.648438 49.640625 -58.671875 C 49.410156 -57.046875 49.117188 -54.671875 48.765625 -51.546875 C 48.421875 -48.421875 48.132812 -46.050781 47.90625 -44.4375 C 48.375 -44.78125 48.894531 -45.585938 49.46875 -46.859375 C 51.4375 -53.109375 53.460938 -58.492188 55.546875 -63.015625 C 56.703125 -65.671875 58.085938 -68.097656 59.703125 -70.296875 C 60.398438 -71.335938 61.039062 -72.03125 61.625 -72.375 C 62.195312 -72.957031 62.859375 -73.191406 63.609375 -73.078125 C 64.367188 -72.960938 64.921875 -72.5 65.265625 -71.6875 C 65.722656 -70.300781 66.015625 -69.257812 66.140625 -68.5625 C 66.484375 -66.25 66.882812 -62.375 67.34375 -56.9375 C 68.039062 -51.84375 68.738281 -48.082031 69.4375 -45.65625 C 69.894531 -43.914062 70.585938 -42.351562 71.515625 -40.96875 C 72.671875 -38.882812 74.289062 -37.4375 76.375 -36.625 C 77.988281 -35.925781 79.609375 -35.8125 81.234375 -36.28125 C 84.359375 -36.96875 87.710938 -38.644531 91.296875 -41.3125 C 95.691406 -44.894531 99.453125 -48.484375 102.578125 -52.078125 C 102.929688 -52.421875 103.28125 -52.796875 103.625 -53.203125 C 103.96875 -53.609375 104.398438 -54.039062 104.921875 -54.5 C 105.441406 -54.96875 105.820312 -55.316406 106.0625 -55.546875 C 106.289062 -55.546875 106.460938 -55.488281 106.578125 -55.375 C 106.691406 -55.257812 106.75 -55.023438 106.75 -54.671875 L 105.53125 -53.109375 C 105.300781 -52.878906 104.691406 -52.15625 103.703125 -50.9375 C 102.722656 -49.726562 102.0625 -48.945312 101.71875 -48.59375 C 101.375 -48.25 100.738281 -47.554688 99.8125 -46.515625 C 98.882812 -45.472656 98.101562 -44.691406 97.46875 -44.171875 C 96.832031 -43.648438 96.019531 -42.984375 95.03125 -42.171875 C 94.050781 -41.367188 93.039062 -40.585938 92 -39.828125 C 90.957031 -39.078125 89.859375 -38.359375 88.703125 -37.671875 C 86.617188 -36.390625 84.765625 -35.460938 83.140625 -34.890625 C 77.816406 -33.035156 73.535156 -34.363281 70.296875 -38.875 C 69.140625 -40.5 68.15625 -42.582031 67.34375 -45.125 C 66.65625 -47.789062 65.960938 -51.785156 65.265625 -57.109375 C 64.804688 -61.960938 64.398438 -65.664062 64.046875 -68.21875 C 64.046875 -68.5625 63.929688 -69.082031 63.703125 -69.78125 C 63.472656 -70.59375 63.007812 -70.765625 62.3125 -70.296875 C 61.15625 -68.679688 60.285156 -67.410156 59.703125 -66.484375 C 57.628906 -63.128906 55.550781 -58.554688 53.46875 -52.765625 C 52.882812 -51.148438 52.070312 -48.722656 51.03125 -45.484375 C 49.988281 -42.242188 49.179688 -39.8125 48.609375 -38.1875 C 48.609375 -38.070312 48.546875 -37.8125 48.421875 -37.40625 C 48.304688 -37 48.191406 -36.707031 48.078125 -36.53125 C 47.960938 -36.363281 47.789062 -36.191406 47.5625 -36.015625 C 47.332031 -35.835938 47.039062 -35.8125 46.6875 -35.9375 C 46.34375 -35.9375 46.113281 -36.050781 46 -36.28125 C 45.882812 -36.507812 45.796875 -36.707031 45.734375 -36.875 C 45.679688 -37.050781 45.679688 -37.34375 45.734375 -37.75 C 45.796875 -38.15625 45.828125 -38.414062 45.828125 -38.53125 C 45.710938 -40.957031 46.054688 -45.9375 46.859375 -53.46875 C 47.898438 -61.675781 49.8125 -73.882812 52.59375 -90.09375 C 54.09375 -98.882812 55.484375 -108.140625 56.765625 -117.859375 C 57.335938 -121.910156 57.394531 -125.613281 56.9375 -128.96875 C 56.9375 -129.550781 56.757812 -129.957031 56.40625 -130.1875 C 56.0625 -130.300781 55.597656 -130.066406 55.015625 -129.484375 C 54.441406 -128.910156 53.691406 -128.046875 52.765625 -126.890625 C 49.523438 -122.722656 46.113281 -116.9375 42.53125 -109.53125 C 40.5625 -105.25 35.816406 -94.195312 28.296875 -76.375 C 22.390625 -62.019531 17.238281 -48.65625 12.84375 -36.28125 C 11.34375 -32.226562 10.535156 -28.410156 10.421875 -24.828125 C 10.066406 -18.109375 8.617188 -11.800781 6.078125 -5.90625 C 5.609375 -4.507812 5.03125 -3.523438 4.34375 -2.953125 C 3.875 -2.484375 3.351562 -2.367188 2.78125 -2.609375 Z M 2.78125 -2.609375 "/></g></g></g><g fill="#0cc0df" fill-opacity="1"><g transform="translate(205.894183, 242.42659)"><g><path d="M 21 0 C 15.101562 -0.582031 10.765625 -3.070312 7.984375 -7.46875 C 5.898438 -10.707031 4.507812 -14.351562 3.8125 -18.40625 C 1.96875 -27.195312 1.332031 -36.394531 1.90625 -46 C 2.945312 -59.65625 6.363281 -73.425781 12.15625 -87.3125 C 14.925781 -94.019531 18.566406 -100.207031 23.078125 -105.875 C 26.441406 -110.394531 30.957031 -114.445312 36.625 -118.03125 C 38.59375 -119.300781 40.617188 -120.171875 42.703125 -120.640625 C 43.972656 -120.867188 45.128906 -120.753906 46.171875 -120.296875 C 46.753906 -120.054688 47.21875 -119.59375 47.5625 -118.90625 C 48.019531 -117.863281 47.785156 -117.34375 46.859375 -117.34375 C 44.203125 -117.570312 40.90625 -116.296875 36.96875 -113.515625 C 32.34375 -110.503906 28.003906 -106.050781 23.953125 -100.15625 C 18.515625 -91.9375 14.003906 -82.390625 10.421875 -71.515625 C 6.710938 -59.597656 4.800781 -48.546875 4.6875 -38.359375 C 4.457031 -30.140625 5.09375 -23.023438 6.59375 -17.015625 C 7.0625 -14.929688 7.988281 -12.441406 9.375 -9.546875 C 12.613281 -3.523438 17.644531 -1.09375 24.46875 -2.25 C 28.519531 -2.832031 32.164062 -4.222656 35.40625 -6.421875 C 40.15625 -9.890625 43.972656 -13.707031 46.859375 -17.875 C 49.867188 -22.15625 55.367188 -31.296875 63.359375 -45.296875 C 65.328125 -48.304688 67.003906 -51.203125 68.390625 -53.984375 L 69.078125 -54.671875 L 69.609375 -55.03125 C 69.835938 -54.789062 69.953125 -54.554688 69.953125 -54.328125 C 69.484375 -53.171875 69.078125 -52.363281 68.734375 -51.90625 C 61.796875 -39.75 56.007812 -29.738281 51.375 -21.875 C 47.207031 -14.8125 41.769531 -9.023438 35.0625 -4.515625 C 31.125 -1.847656 26.4375 -0.34375 21 0 Z M 21 0 "/></g></g></g><g fill="#ffffff" fill-opacity="1"><g transform="translate(82.389337, 194.249987)"><g><path d="M 2.1875 -16.09375 L 3.796875 -16.09375 L 8.515625 -6.90625 L 8.625 -6.90625 L 13.34375 -16.09375 L 14.953125 -16.09375 L 14.953125 0 L 13.34375 0 L 13.34375 -12.765625 L 13.21875 -12.765625 L 9.203125 -4.828125 L 7.9375 -4.828125 L 3.90625 -12.765625 L 3.796875 -12.765625 L 3.796875 0 L 2.1875 0 Z M 2.1875 -16.09375 "/></g></g></g><g fill="#ffffff" fill-opacity="1"><g transform="translate(102.531619, 194.249987)"><g><path d="M 8.046875 0.234375 C 7.160156 0.234375 6.3125 0.046875 5.5 -0.328125 C 4.695312 -0.703125 3.988281 -1.242188 3.375 -1.953125 C 2.769531 -2.671875 2.285156 -3.546875 1.921875 -4.578125 C 1.554688 -5.609375 1.375 -6.765625 1.375 -8.046875 C 1.375 -9.335938 1.554688 -10.492188 1.921875 -11.515625 C 2.285156 -12.546875 2.769531 -13.414062 3.375 -14.125 C 3.988281 -14.84375 4.695312 -15.390625 5.5 -15.765625 C 6.3125 -16.140625 7.160156 -16.328125 8.046875 -16.328125 C 8.941406 -16.328125 9.789062 -16.140625 10.59375 -15.765625 C 11.394531 -15.390625 12.101562 -14.84375 12.71875 -14.125 C 13.332031 -13.414062 13.816406 -12.546875 14.171875 -11.515625 C 14.535156 -10.492188 14.71875 -9.335938 14.71875 -8.046875 C 14.71875 -6.765625 14.535156 -5.609375 14.171875 -4.578125 C 13.816406 -3.546875 13.332031 -2.671875 12.71875 -1.953125 C 12.101562 -1.242188 11.394531 -0.703125 10.59375 -0.328125 C 9.789062 0.046875 8.941406 0.234375 8.046875 0.234375 Z M 8.046875 -1.265625 C 8.703125 -1.265625 9.335938 -1.410156 9.953125 -1.703125 C 10.566406 -2.003906 11.109375 -2.441406 11.578125 -3.015625 C 12.046875 -3.597656 12.414062 -4.3125 12.6875 -5.15625 C 12.96875 -6 13.109375 -6.960938 13.109375 -8.046875 C 13.109375 -9.140625 12.96875 -10.109375 12.6875 -10.953125 C 12.414062 -11.796875 12.046875 -12.503906 11.578125 -13.078125 C 11.109375 -13.648438 10.566406 -14.082031 9.953125 -14.375 C 9.335938 -14.675781 8.703125 -14.828125 8.046875 -14.828125 C 7.390625 -14.828125 6.753906 -14.675781 6.140625 -14.375 C 5.523438 -14.082031 4.984375 -13.648438 4.515625 -13.078125 C 4.046875 -12.503906 3.671875 -11.796875 3.390625 -10.953125 C 3.117188 -10.109375 2.984375 -9.140625 2.984375 -8.046875 C 2.984375 -6.960938 3.117188 -6 3.390625 -5.15625 C 3.671875 -4.3125 4.046875 -3.597656 4.515625 -3.015625 C 4.984375 -2.441406 5.523438 -2.003906 6.140625 -1.703125 C 6.753906 -1.410156 7.390625 -1.265625 8.046875 -1.265625 Z M 8.046875 -1.265625 "/></g></g></g><g fill="#ffffff" fill-opacity="1"><g transform="translate(121.639251, 194.249987)"><g><path d="M 2.1875 -16.09375 L 3.6875 -16.09375 L 11.84375 -3.21875 L 11.953125 -3.21875 L 11.953125 -16.09375 L 13.5625 -16.09375 L 13.5625 0 L 12.078125 0 L 3.90625 -12.875 L 3.796875 -12.875 L 3.796875 0 L 2.1875 0 Z M 2.1875 -16.09375 "/></g></g></g><g fill="#ffffff" fill-opacity="1"><g transform="translate(140.401993, 194.249987)"><g><path d="M 2.1875 -16.09375 L 3.796875 -16.09375 L 3.796875 0 L 2.1875 0 Z M 2.1875 -16.09375 "/></g></g></g><g fill="#ffffff" fill-opacity="1"><g transform="translate(149.393026, 194.249987)"><g><path d="M 8.046875 0.234375 C 7.160156 0.234375 6.3125 0.046875 5.5 -0.328125 C 4.695312 -0.703125 3.988281 -1.242188 3.375 -1.953125 C 2.769531 -2.671875 2.285156 -3.546875 1.921875 -4.578125 C 1.554688 -5.609375 1.375 -6.765625 1.375 -8.046875 C 1.375 -9.335938 1.554688 -10.492188 1.921875 -11.515625 C 2.285156 -12.546875 2.769531 -13.414062 3.375 -14.125 C 3.988281 -14.84375 4.695312 -15.390625 5.5 -15.765625 C 6.3125 -16.140625 7.160156 -16.328125 8.046875 -16.328125 C 8.878906 -16.328125 9.609375 -16.191406 10.234375 -15.921875 C 10.859375 -15.660156 11.390625 -15.375 11.828125 -15.0625 C 12.328125 -14.675781 12.753906 -14.253906 13.109375 -13.796875 L 11.953125 -12.875 C 11.691406 -13.25 11.378906 -13.570312 11.015625 -13.84375 C 10.691406 -14.09375 10.296875 -14.316406 9.828125 -14.515625 C 9.359375 -14.722656 8.804688 -14.828125 8.171875 -14.828125 C 7.472656 -14.828125 6.8125 -14.675781 6.1875 -14.375 C 5.5625 -14.082031 5.015625 -13.648438 4.546875 -13.078125 C 4.078125 -12.503906 3.695312 -11.796875 3.40625 -10.953125 C 3.125 -10.109375 2.984375 -9.140625 2.984375 -8.046875 C 2.984375 -6.960938 3.125 -6 3.40625 -5.15625 C 3.695312 -4.3125 4.078125 -3.597656 4.546875 -3.015625 C 5.015625 -2.441406 5.5625 -2.003906 6.1875 -1.703125 C 6.8125 -1.410156 7.472656 -1.265625 8.171875 -1.265625 C 8.890625 -1.265625 9.507812 -1.394531 10.03125 -1.65625 C 10.550781 -1.914062 10.976562 -2.207031 11.3125 -2.53125 C 11.707031 -2.894531 12.039062 -3.316406 12.3125 -3.796875 L 13.453125 -2.765625 C 13.085938 -2.191406 12.644531 -1.691406 12.125 -1.265625 C 11.675781 -0.878906 11.113281 -0.53125 10.4375 -0.21875 C 9.769531 0.0820312 8.972656 0.234375 8.046875 0.234375 Z M 8.046875 0.234375 "/></g></g></g><g fill="#ffffff" fill-opacity="1"><g transform="translate(166.546317, 194.249987)"><g><path d="M 6.09375 -16.09375 L 7.703125 -16.09375 L 13.109375 0 L 11.5 0 L 10.234375 -3.796875 L 3.5625 -3.796875 L 2.296875 0 L 0.6875 0 Z M 9.78125 -5.296875 L 7.015625 -13.453125 L 6.78125 -13.453125 L 4.03125 -5.296875 Z M 9.78125 -5.296875 "/></g></g></g><g fill="#ffffff" fill-opacity="1"><g transform="translate(183.354717, 194.249987)"><g><path d="M 2.1875 -16.09375 L 3.796875 -16.09375 L 3.796875 -11.046875 L 11.609375 -11.046875 L 11.609375 -16.09375 L 13.21875 -16.09375 L 13.21875 0 L 11.609375 0 L 11.609375 -9.546875 L 3.796875 -9.546875 L 3.796875 0 L 2.1875 0 Z M 2.1875 -16.09375 "/></g></g></g><g fill="#ffffff" fill-opacity="1"><g transform="translate(201.772585, 194.249987)"><g/></g></g><g fill="#ffffff" fill-opacity="1"><g transform="translate(208.924249, 194.249987)"><g><path d="M 8.046875 0.234375 C 7.160156 0.234375 6.3125 0.046875 5.5 -0.328125 C 4.695312 -0.703125 3.988281 -1.242188 3.375 -1.953125 C 2.769531 -2.671875 2.285156 -3.546875 1.921875 -4.578125 C 1.554688 -5.609375 1.375 -6.765625 1.375 -8.046875 C 1.375 -9.335938 1.554688 -10.492188 1.921875 -11.515625 C 2.285156 -12.546875 2.769531 -13.414062 3.375 -14.125 C 3.988281 -14.84375 4.695312 -15.390625 5.5 -15.765625 C 6.3125 -16.140625 7.160156 -16.328125 8.046875 -16.328125 C 8.878906 -16.328125 9.609375 -16.191406 10.234375 -15.921875 C 10.859375 -15.660156 11.390625 -15.375 11.828125 -15.0625 C 12.328125 -14.675781 12.753906 -14.253906 13.109375 -13.796875 L 11.953125 -12.875 C 11.691406 -13.25 11.378906 -13.570312 11.015625 -13.84375 C 10.691406 -14.09375 10.296875 -14.316406 9.828125 -14.515625 C 9.359375 -14.722656 8.804688 -14.828125 8.171875 -14.828125 C 7.472656 -14.828125 6.8125 -14.675781 6.1875 -14.375 C 5.5625 -14.082031 5.015625 -13.648438 4.546875 -13.078125 C 4.078125 -12.503906 3.695312 -11.796875 3.40625 -10.953125 C 3.125 -10.109375 2.984375 -9.140625 2.984375 -8.046875 C 2.984375 -6.960938 3.125 -6 3.40625 -5.15625 C 3.695312 -4.3125 4.078125 -3.597656 4.546875 -3.015625 C 5.015625 -2.441406 5.5625 -2.003906 6.1875 -1.703125 C 6.8125 -1.410156 7.472656 -1.265625 8.171875 -1.265625 C 8.890625 -1.265625 9.507812 -1.394531 10.03125 -1.65625 C 10.550781 -1.914062 10.976562 -2.207031 11.3125 -2.53125 C 11.707031 -2.894531 12.039062 -3.316406 12.3125 -3.796875 L 13.453125 -2.765625 C 13.085938 -2.191406 12.644531 -1.691406 12.125 -1.265625 C 11.675781 -0.878906 11.113281 -0.53125 10.4375 -0.21875 C 9.769531 0.0820312 8.972656 0.234375 8.046875 0.234375 Z M 8.046875 0.234375 "/></g></g></g><g fill="#ffffff" fill-opacity="1"><g transform="translate(226.077545, 194.249987)"><g><path d="M 2.1875 -16.09375 L 3.796875 -16.09375 L 3.796875 -1.5 L 10.6875 -1.5 L 10.6875 0 L 2.1875 0 Z M 2.1875 -16.09375 "/></g></g></g><g fill="#ffffff" fill-opacity="1"><g transform="translate(240.241828, 194.249987)"><g><path d="M 8.046875 0.234375 C 7.160156 0.234375 6.3125 0.046875 5.5 -0.328125 C 4.695312 -0.703125 3.988281 -1.242188 3.375 -1.953125 C 2.769531 -2.671875 2.285156 -3.546875 1.921875 -4.578125 C 1.554688 -5.609375 1.375 -6.765625 1.375 -8.046875 C 1.375 -9.335938 1.554688 -10.492188 1.921875 -11.515625 C 2.285156 -12.546875 2.769531 -13.414062 3.375 -14.125 C 3.988281 -14.84375 4.695312 -15.390625 5.5 -15.765625 C 6.3125 -16.140625 7.160156 -16.328125 8.046875 -16.328125 C 8.941406 -16.328125 9.789062 -16.140625 10.59375 -15.765625 C 11.394531 -15.390625 12.101562 -14.84375 12.71875 -14.125 C 13.332031 -13.414062 13.816406 -12.546875 14.171875 -11.515625 C 14.535156 -10.492188 14.71875 -9.335938 14.71875 -8.046875 C 14.71875 -6.765625 14.535156 -5.609375 14.171875 -4.578125 C 13.816406 -3.546875 13.332031 -2.671875 12.71875 -1.953125 C 12.101562 -1.242188 11.394531 -0.703125 10.59375 -0.328125 C 9.789062 0.046875 8.941406 0.234375 8.046875 0.234375 Z M 8.046875 -1.265625 C 8.703125 -1.265625 9.335938 -1.410156 9.953125 -1.703125 C 10.566406 -2.003906 11.109375 -2.441406 11.578125 -3.015625 C 12.046875 -3.597656 12.414062 -4.3125 12.6875 -5.15625 C 12.96875 -6 13.109375 -6.960938 13.109375 -8.046875 C 13.109375 -9.140625 12.96875 -10.109375 12.6875 -10.953125 C 12.414062 -11.796875 12.046875 -12.503906 11.578125 -13.078125 C 11.109375 -13.648438 10.566406 -14.082031 9.953125 -14.375 C 9.335938 -14.675781 8.703125 -14.828125 8.046875 -14.828125 C 7.390625 -14.828125 6.753906 -14.675781 6.140625 -14.375 C 5.523438 -14.082031 4.984375 -13.648438 4.515625 -13.078125 C 4.046875 -12.503906 3.671875 -11.796875 3.390625 -10.953125 C 3.117188 -10.109375 2.984375 -9.140625 2.984375 -8.046875 C 2.984375 -6.960938 3.117188 -6 3.390625 -5.15625 C 3.671875 -4.3125 4.046875 -3.597656 4.515625 -3.015625 C 4.984375 -2.441406 5.523438 -2.003906 6.140625 -1.703125 C 6.753906 -1.410156 7.390625 -1.265625 8.046875 -1.265625 Z M 8.046875 -1.265625 "/></g></g></g><g fill="#ffffff" fill-opacity="1"><g transform="translate(259.349455, 194.249987)"><g><path d="M 7.8125 0.234375 C 6.988281 0.234375 6.226562 0.0976562 5.53125 -0.171875 C 4.832031 -0.441406 4.238281 -0.816406 3.75 -1.296875 C 3.257812 -1.785156 2.875 -2.359375 2.59375 -3.015625 C 2.320312 -3.671875 2.1875 -4.390625 2.1875 -5.171875 L 2.1875 -16.09375 L 3.796875 -16.09375 L 3.796875 -5.171875 C 3.796875 -4.585938 3.890625 -4.054688 4.078125 -3.578125 C 4.273438 -3.109375 4.546875 -2.703125 4.890625 -2.359375 C 5.242188 -2.015625 5.671875 -1.742188 6.171875 -1.546875 C 6.671875 -1.359375 7.21875 -1.265625 7.8125 -1.265625 C 8.414062 -1.265625 8.96875 -1.359375 9.46875 -1.546875 C 9.96875 -1.742188 10.390625 -2.015625 10.734375 -2.359375 C 11.085938 -2.703125 11.359375 -3.109375 11.546875 -3.578125 C 11.742188 -4.054688 11.84375 -4.585938 11.84375 -5.171875 L 11.84375 -16.09375 L 13.453125 -16.09375 L 13.453125 -5.171875 C 13.453125 -4.390625 13.3125 -3.671875 13.03125 -3.015625 C 12.757812 -2.359375 12.378906 -1.785156 11.890625 -1.296875 C 11.398438 -0.816406 10.804688 -0.441406 10.109375 -0.171875 C 9.410156 0.0976562 8.644531 0.234375 7.8125 0.234375 Z M 7.8125 0.234375 "/></g></g></g><g fill="#ffffff" fill-opacity="1"><g transform="translate(277.997235, 194.249987)"><g><path d="M 2.1875 -15.640625 C 2.539062 -15.765625 2.9375 -15.878906 3.375 -15.984375 C 3.757812 -16.054688 4.21875 -16.128906 4.75 -16.203125 C 5.28125 -16.285156 5.882812 -16.328125 6.5625 -16.328125 C 7.445312 -16.328125 8.289062 -16.140625 9.09375 -15.765625 C 9.894531 -15.390625 10.601562 -14.84375 11.21875 -14.125 C 11.832031 -13.414062 12.316406 -12.546875 12.671875 -11.515625 C 13.035156 -10.492188 13.21875 -9.335938 13.21875 -8.046875 C 13.21875 -6.773438 13.039062 -5.640625 12.6875 -4.640625 C 12.34375 -3.648438 11.867188 -2.804688 11.265625 -2.109375 C 10.671875 -1.421875 9.96875 -0.894531 9.15625 -0.53125 C 8.34375 -0.175781 7.476562 0 6.5625 0 L 2.1875 0 Z M 6.5625 -1.5 C 7.25 -1.5 7.898438 -1.640625 8.515625 -1.921875 C 9.128906 -2.203125 9.664062 -2.617188 10.125 -3.171875 C 10.582031 -3.722656 10.941406 -4.410156 11.203125 -5.234375 C 11.472656 -6.054688 11.609375 -6.992188 11.609375 -8.046875 C 11.609375 -9.140625 11.46875 -10.109375 11.1875 -10.953125 C 10.90625 -11.796875 10.519531 -12.503906 10.03125 -13.078125 C 9.550781 -13.648438 8.992188 -14.082031 8.359375 -14.375 C 7.722656 -14.675781 7.046875 -14.828125 6.328125 -14.828125 C 5.941406 -14.828125 5.59375 -14.804688 5.28125 -14.765625 C 4.976562 -14.722656 4.722656 -14.671875 4.515625 -14.609375 C 4.242188 -14.546875 4.003906 -14.46875 3.796875 -14.375 L 3.796875 -1.5 Z M 6.5625 -1.5 "/></g></g></g></svg>