<svg xmlns="http://www.w3.org/2000/svg" xmlns:xlink="http://www.w3.org/1999/xlink" width="500" zoomAndPan="magnify" viewBox="0 0 375 374.999991" height="500" preserveAspectRatio="xMidYMid meet" version="1.0"><defs><g/><clipPath id="5c8f4718b2"><path d="M 37.5 165.519531 L 202.5 165.519531 L 202.5 212.769531 L 37.5 212.769531 Z M 37.5 165.519531 " clip-rule="nonzero"/></clipPath><clipPath id="c7d024289f"><path d="M 187 161.589844 L 370.621094 161.589844 L 370.621094 203.589844 L 187 203.589844 Z M 187 161.589844 " clip-rule="nonzero"/></clipPath></defs><g fill="#0cc0df" fill-opacity="1"><g transform="translate(117.55145, 161.416448)"><g><path d="M -4.4375 -14.90625 L 4.96875 -10.390625 L 4.390625 -9.171875 L -1.515625 -12 L 1.625 -6.359375 L 1.625 -6.34375 L -4.5625 -5.25 L 1.1875 -2.5 L 0.625 -1.3125 L -8.78125 -5.828125 L -8.765625 -5.84375 L -0.28125 -7.28125 Z M -4.4375 -14.90625 "/></g></g></g><g fill="#0cc0df" fill-opacity="1"><g transform="translate(125.104631, 146.639463)"><g><path d="M -3.515625 -3.71875 C -4.242188 -4.28125 -4.78125 -4.988281 -5.125 -5.84375 C -5.476562 -6.695312 -5.597656 -7.578125 -5.484375 -8.484375 C -5.378906 -9.398438 -5.046875 -10.226562 -4.484375 -10.96875 C -3.921875 -11.707031 -3.207031 -12.25 -2.34375 -12.59375 C -1.488281 -12.9375 -0.601562 -13.050781 0.3125 -12.9375 C 1.226562 -12.832031 2.050781 -12.5 2.78125 -11.9375 C 3.519531 -11.375 4.0625 -10.664062 4.40625 -9.8125 C 4.75 -8.957031 4.863281 -8.070312 4.75 -7.15625 C 4.632812 -6.25 4.296875 -5.425781 3.734375 -4.6875 C 3.171875 -3.945312 2.460938 -3.398438 1.609375 -3.046875 C 0.765625 -2.703125 -0.109375 -2.582031 -1.015625 -2.6875 C -1.921875 -2.800781 -2.753906 -3.144531 -3.515625 -3.71875 Z M -2.671875 -4.828125 C -2.109375 -4.410156 -1.488281 -4.15625 -0.8125 -4.0625 C -0.144531 -3.96875 0.5 -4.046875 1.125 -4.296875 C 1.757812 -4.554688 2.285156 -4.960938 2.703125 -5.515625 C 3.128906 -6.066406 3.378906 -6.671875 3.453125 -7.328125 C 3.535156 -7.984375 3.441406 -8.625 3.171875 -9.25 C 2.898438 -9.875 2.484375 -10.394531 1.921875 -10.8125 C 1.359375 -11.25 0.738281 -11.515625 0.0625 -11.609375 C -0.601562 -11.710938 -1.25 -11.640625 -1.875 -11.390625 C -2.507812 -11.140625 -3.035156 -10.738281 -3.453125 -10.1875 C -3.867188 -9.644531 -4.113281 -9.035156 -4.1875 -8.359375 C -4.257812 -7.679688 -4.160156 -7.03125 -3.890625 -6.40625 C -3.628906 -5.78125 -3.222656 -5.253906 -2.671875 -4.828125 Z M -2.671875 -4.828125 "/></g></g></g><g fill="#0cc0df" fill-opacity="1"><g transform="translate(134.908796, 134.44505)"><g><path d="M 1.0625 -14.390625 L 7.953125 -6.5 L 7.921875 -6.46875 L -2.640625 -7.265625 L 2.125 -1.859375 L 1.09375 -0.953125 L -5.78125 -8.8125 L -5.71875 -8.875 L 4.890625 -8 L 0.046875 -13.5 Z M 1.0625 -14.390625 "/></g></g></g><g fill="#0cc0df" fill-opacity="1"><g transform="translate(146.924735, 124.682308)"><g><path d="M -3.078125 -10.046875 L 2.375 -1.515625 L 1.21875 -0.78125 L -4.234375 -9.3125 Z M -3.078125 -10.046875 "/></g></g></g><g fill="#0cc0df" fill-opacity="1"><g transform="translate(153.783416, 120.392498)"><g><path d="M 7.765625 -4.390625 C 7.554688 -4.054688 7.265625 -3.703125 6.890625 -3.328125 C 6.515625 -2.960938 6.054688 -2.65625 5.515625 -2.40625 C 4.578125 -1.976562 3.648438 -1.804688 2.734375 -1.890625 C 1.828125 -1.984375 1.019531 -2.289062 0.3125 -2.8125 C -0.382812 -3.332031 -0.929688 -4.019531 -1.328125 -4.875 C -1.742188 -5.78125 -1.921875 -6.679688 -1.859375 -7.578125 C -1.804688 -8.484375 -1.53125 -9.300781 -1.03125 -10.03125 C -0.53125 -10.757812 0.160156 -11.328125 1.046875 -11.734375 C 1.554688 -11.960938 2.066406 -12.113281 2.578125 -12.1875 C 3.085938 -12.257812 3.578125 -12.269531 4.046875 -12.21875 L 4.078125 -10.828125 C 3.160156 -10.984375 2.34375 -10.898438 1.625 -10.578125 C 1.03125 -10.304688 0.550781 -9.894531 0.1875 -9.34375 C -0.164062 -8.789062 -0.367188 -8.175781 -0.421875 -7.5 C -0.484375 -6.832031 -0.367188 -6.175781 -0.078125 -5.53125 C 0.222656 -4.875 0.632812 -4.335938 1.15625 -3.921875 C 1.6875 -3.515625 2.273438 -3.273438 2.921875 -3.203125 C 3.578125 -3.140625 4.238281 -3.265625 4.90625 -3.578125 C 5.726562 -3.953125 6.34375 -4.515625 6.75 -5.265625 Z M 7.765625 -4.390625 "/></g></g></g><g fill="#0cc0df" fill-opacity="1"><g transform="translate(166.122604, 115.087201)"><g><path d="M 5.875 -4.28125 L 2.109375 -3.296875 L 1.734375 -0.453125 L 0.4375 -0.109375 L 2.046875 -11.4375 L 2.125 -11.46875 L 9.0625 -2.375 L 7.5625 -1.984375 Z M 5.125 -5.3125 L 2.796875 -8.515625 L 2.28125 -4.578125 Z M 5.125 -5.3125 "/></g></g></g><g fill="#0cc0df" fill-opacity="1"><g transform="translate(179.256838, 111.933544)"><g><path d="M 9.453125 -0.71875 L 8.09375 -0.625 L 7.75 -5.046875 L 2.453125 -4.640625 L 2.796875 -0.21875 L 1.453125 -0.109375 L 0.671875 -10.203125 L 2.015625 -10.3125 L 2.359375 -5.9375 L 7.65625 -6.34375 L 7.3125 -10.71875 L 8.671875 -10.8125 Z M 9.453125 -0.71875 "/></g></g></g><g fill="#0cc0df" fill-opacity="1"><g transform="translate(193.944336, 111.325525)"><g/></g></g><g fill="#0cc0df" fill-opacity="1"><g transform="translate(202.156572, 111.984133)"><g><path d="M 8.859375 1.109375 C 8.492188 1.253906 8.046875 1.363281 7.515625 1.4375 C 6.992188 1.507812 6.445312 1.484375 5.875 1.359375 C 4.863281 1.148438 4.015625 0.738281 3.328125 0.125 C 2.648438 -0.488281 2.1875 -1.21875 1.9375 -2.0625 C 1.6875 -2.90625 1.65625 -3.785156 1.84375 -4.703125 C 2.050781 -5.679688 2.445312 -6.515625 3.03125 -7.203125 C 3.613281 -7.898438 4.320312 -8.390625 5.15625 -8.671875 C 6 -8.953125 6.894531 -8.992188 7.84375 -8.796875 C 8.394531 -8.679688 8.894531 -8.492188 9.34375 -8.234375 C 9.800781 -7.984375 10.203125 -7.703125 10.546875 -7.390625 L 9.71875 -6.25 C 9.082031 -6.925781 8.378906 -7.347656 7.609375 -7.515625 C 6.972656 -7.648438 6.34375 -7.601562 5.71875 -7.375 C 5.101562 -7.15625 4.570312 -6.789062 4.125 -6.28125 C 3.6875 -5.769531 3.390625 -5.164062 3.234375 -4.46875 C 3.085938 -3.757812 3.101562 -3.085938 3.28125 -2.453125 C 3.457031 -1.816406 3.785156 -1.273438 4.265625 -0.828125 C 4.742188 -0.378906 5.347656 -0.0820312 6.078125 0.0625 C 6.960938 0.25 7.78125 0.164062 8.53125 -0.1875 Z M 8.859375 1.109375 "/></g></g></g><g fill="#0cc0df" fill-opacity="1"><g transform="translate(215.227667, 115.126153)"><g><path d="M 6.328125 -8.390625 L 3.09375 -0.1875 L 7.890625 1.703125 L 7.40625 2.921875 L 1.359375 0.53125 L 5.078125 -8.890625 Z M 6.328125 -8.390625 "/></g></g></g><g fill="#0cc0df" fill-opacity="1"><g transform="translate(226.703855, 119.854143)"><g><path d="M 3.359375 -3.84375 C 3.847656 -4.632812 4.5 -5.242188 5.3125 -5.671875 C 6.132812 -6.097656 7.003906 -6.300781 7.921875 -6.28125 C 8.847656 -6.269531 9.703125 -6.019531 10.484375 -5.53125 C 11.273438 -5.039062 11.882812 -4.382812 12.3125 -3.5625 C 12.738281 -2.738281 12.9375 -1.867188 12.90625 -0.953125 C 12.882812 -0.0351562 12.628906 0.816406 12.140625 1.609375 C 11.648438 2.390625 11 2.992188 10.1875 3.421875 C 9.375 3.847656 8.503906 4.046875 7.578125 4.015625 C 6.660156 3.992188 5.804688 3.738281 5.015625 3.25 C 4.234375 2.757812 3.628906 2.109375 3.203125 1.296875 C 2.773438 0.492188 2.566406 -0.359375 2.578125 -1.265625 C 2.597656 -2.179688 2.859375 -3.039062 3.359375 -3.84375 Z M 4.546875 -3.109375 C 4.179688 -2.515625 3.984375 -1.878906 3.953125 -1.203125 C 3.929688 -0.523438 4.078125 0.109375 4.390625 0.703125 C 4.710938 1.304688 5.164062 1.789062 5.75 2.15625 C 6.34375 2.519531 6.96875 2.707031 7.625 2.71875 C 8.289062 2.726562 8.921875 2.570312 9.515625 2.25 C 10.109375 1.925781 10.585938 1.46875 10.953125 0.875 C 11.328125 0.269531 11.53125 -0.367188 11.5625 -1.046875 C 11.59375 -1.734375 11.453125 -2.378906 11.140625 -2.984375 C 10.835938 -3.585938 10.390625 -4.070312 9.796875 -4.4375 C 9.210938 -4.800781 8.582031 -4.984375 7.90625 -4.984375 C 7.226562 -4.984375 6.59375 -4.816406 6 -4.484375 C 5.40625 -4.160156 4.921875 -3.703125 4.546875 -3.109375 Z M 4.546875 -3.109375 "/></g></g></g><g fill="#0cc0df" fill-opacity="1"><g transform="translate(239.775599, 128.478561)"><g><path d="M 4.390625 -0.796875 C 4.085938 -0.472656 3.894531 -0.109375 3.8125 0.296875 C 3.726562 0.703125 3.75 1.109375 3.875 1.515625 C 4.007812 1.921875 4.238281 2.273438 4.5625 2.578125 C 4.90625 2.890625 5.285156 3.097656 5.703125 3.203125 C 6.117188 3.316406 6.53125 3.3125 6.9375 3.1875 C 7.34375 3.070312 7.695312 2.851562 8 2.53125 L 12.4375 -2.28125 L 13.421875 -1.390625 L 8.96875 3.4375 C 8.476562 3.96875 7.921875 4.320312 7.296875 4.5 C 6.671875 4.6875 6.039062 4.691406 5.40625 4.515625 C 4.769531 4.347656 4.191406 4.023438 3.671875 3.546875 C 3.160156 3.066406 2.796875 2.519531 2.578125 1.90625 C 2.367188 1.300781 2.328125 0.679688 2.453125 0.046875 C 2.578125 -0.585938 2.882812 -1.171875 3.375 -1.703125 L 7.828125 -6.53125 L 8.828125 -5.609375 Z M 4.390625 -0.796875 "/></g></g></g><g fill="#0cc0df" fill-opacity="1"><g transform="translate(249.803225, 138.164118)"><g><path d="M 8.96875 -4.9375 L 10.640625 -2.703125 C 11.398438 -1.703125 11.828125 -0.722656 11.921875 0.234375 C 12.015625 1.191406 11.859375 2.0625 11.453125 2.84375 C 11.054688 3.625 10.507812 4.28125 9.8125 4.8125 C 9.019531 5.40625 8.1875 5.742188 7.3125 5.828125 C 6.4375 5.910156 5.601562 5.765625 4.8125 5.390625 C 4.03125 5.023438 3.375 4.484375 2.84375 3.765625 L 0.875 1.15625 Z M 3.71875 2.765625 C 4.175781 3.359375 4.703125 3.800781 5.296875 4.09375 C 5.890625 4.394531 6.503906 4.507812 7.140625 4.4375 C 7.773438 4.363281 8.40625 4.09375 9.03125 3.625 C 9.664062 3.144531 10.109375 2.597656 10.359375 1.984375 C 10.609375 1.367188 10.675781 0.742188 10.5625 0.109375 C 10.457031 -0.523438 10.203125 -1.109375 9.796875 -1.640625 L 8.734375 -3.046875 L 2.734375 1.453125 Z M 3.71875 2.765625 "/></g></g></g><g fill="#0cc0df" fill-opacity="1"><g transform="translate(258.018714, 149.906249)"><g/></g></g><g fill="#0cc0df" fill-opacity="1"><g transform="translate(261.825998, 157.300933)"><g/></g></g><g fill="#0cc0df" fill-opacity="1"><g transform="translate(264.824245, 165.058868)"><g/></g></g><g fill="#0cc0df" fill-opacity="1"><g transform="translate(266.97942, 173.091958)"><g/></g></g><g fill="#0cc0df" fill-opacity="1"><g transform="translate(268.271315, 181.367371)"><g/></g></g><g fill="#0cc0df" fill-opacity="1"><g transform="translate(268.672393, 189.616166)"><g/></g></g><g fill="#0cc0df" fill-opacity="1"><g transform="translate(268.190927, 197.919468)"><g/></g></g><g fill="#0cc0df" fill-opacity="1"><g transform="translate(266.828102, 206.124206)"><g/></g></g><g fill="#0cc0df" fill-opacity="1"><g transform="translate(264.599415, 214.137246)"><g/></g></g><g fill="#0cc0df" fill-opacity="1"><g transform="translate(261.801834, 221.842322)"><g><path d="M 3.453125 15.15625 L -5.640625 10.03125 L -4.984375 8.859375 L 0.71875 12.0625 L -2.0625 6.25 L -2.046875 6.21875 L 4.203125 5.53125 L -1.359375 2.40625 L -0.71875 1.265625 L 8.375 6.390625 L 8.375 6.40625 L -0.21875 7.28125 Z M 3.453125 15.15625 "/></g></g></g><g fill="#0cc0df" fill-opacity="1"><g transform="translate(253.293713, 236.097552)"><g><path d="M 3.25 3.953125 C 3.945312 4.554688 4.4375 5.289062 4.71875 6.15625 C 5.007812 7.03125 5.070312 7.921875 4.90625 8.828125 C 4.75 9.734375 4.367188 10.535156 3.765625 11.234375 C 3.148438 11.929688 2.398438 12.421875 1.515625 12.703125 C 0.628906 12.992188 -0.257812 13.054688 -1.15625 12.890625 C -2.0625 12.722656 -2.863281 12.335938 -3.5625 11.734375 C -4.257812 11.117188 -4.75 10.375 -5.03125 9.5 C -5.320312 8.625 -5.378906 7.734375 -5.203125 6.828125 C -5.023438 5.921875 -4.628906 5.117188 -4.015625 4.421875 C -3.410156 3.722656 -2.675781 3.226562 -1.8125 2.9375 C -0.945312 2.644531 -0.0664062 2.582031 0.828125 2.75 C 1.734375 2.925781 2.539062 3.328125 3.25 3.953125 Z M 2.328125 5 C 1.804688 4.539062 1.210938 4.242188 0.546875 4.109375 C -0.109375 3.972656 -0.757812 4.007812 -1.40625 4.21875 C -2.050781 4.4375 -2.601562 4.804688 -3.0625 5.328125 C -3.519531 5.847656 -3.804688 6.4375 -3.921875 7.09375 C -4.046875 7.75 -3.992188 8.394531 -3.765625 9.03125 C -3.535156 9.664062 -3.160156 10.210938 -2.640625 10.671875 C -2.109375 11.140625 -1.503906 11.441406 -0.828125 11.578125 C -0.160156 11.722656 0.488281 11.691406 1.125 11.484375 C 1.769531 11.285156 2.320312 10.921875 2.78125 10.390625 C 3.226562 9.878906 3.507812 9.285156 3.625 8.609375 C 3.738281 7.941406 3.679688 7.285156 3.453125 6.640625 C 3.222656 6.003906 2.847656 5.457031 2.328125 5 Z M 2.328125 5 "/></g></g></g><g fill="#0cc0df" fill-opacity="1"><g transform="translate(242.708873, 247.617303)"><g><path d="M -2.015625 14.296875 L -8.375 5.984375 L -8.328125 5.953125 L 2.15625 7.421875 L -2.25 1.71875 L -1.15625 0.890625 L 5.1875 9.1875 L 5.125 9.234375 L -5.40625 7.65625 L -0.921875 13.46875 Z M -2.015625 14.296875 "/></g></g></g><g fill="#0cc0df" fill-opacity="1"><g transform="translate(230.07726, 256.573512)"><g><path d="M 2.40625 10.234375 L -2.46875 1.359375 L -1.28125 0.703125 L 3.59375 9.578125 Z M 2.40625 10.234375 "/></g></g></g><g fill="#0cc0df" fill-opacity="1"><g transform="translate(222.951136, 260.397682)"><g><path d="M -8.046875 3.859375 C -7.816406 3.546875 -7.5 3.210938 -7.09375 2.859375 C -6.6875 2.515625 -6.207031 2.238281 -5.65625 2.03125 C -4.6875 1.664062 -3.75 1.554688 -2.84375 1.703125 C -1.945312 1.859375 -1.164062 2.21875 -0.5 2.78125 C 0.15625 3.351562 0.648438 4.078125 0.984375 4.953125 C 1.347656 5.890625 1.472656 6.804688 1.359375 7.703125 C 1.242188 8.597656 0.910156 9.390625 0.359375 10.078125 C -0.191406 10.773438 -0.921875 11.296875 -1.828125 11.640625 C -2.347656 11.835938 -2.863281 11.953125 -3.375 11.984375 C -3.894531 12.023438 -4.378906 12.007812 -4.828125 11.9375 L -4.796875 10.53125 C -3.867188 10.757812 -3.035156 10.734375 -2.296875 10.453125 C -1.691406 10.222656 -1.191406 9.84375 -0.796875 9.3125 C -0.398438 8.789062 -0.15625 8.191406 -0.0625 7.515625 C 0.03125 6.847656 -0.046875 6.179688 -0.296875 5.515625 C -0.554688 4.835938 -0.929688 4.28125 -1.421875 3.84375 C -1.921875 3.40625 -2.492188 3.128906 -3.140625 3.015625 C -3.785156 2.898438 -4.453125 2.976562 -5.140625 3.25 C -5.984375 3.570312 -6.625 4.085938 -7.0625 4.796875 Z M -8.046875 3.859375 "/></g></g></g><g fill="#0cc0df" fill-opacity="1"><g transform="translate(210.289683, 264.876097)"><g><path d="M -6.140625 3.890625 L -2.328125 3.15625 L -1.765625 0.34375 L -0.4375 0.09375 L -2.78125 11.28125 L -2.859375 11.296875 L -9.203125 1.78125 L -7.671875 1.484375 Z M -5.453125 4.984375 L -3.328125 8.3125 L -2.5625 4.421875 Z M -5.453125 4.984375 "/></g></g></g><g fill="#0cc0df" fill-opacity="1"><g transform="translate(196.976742, 267.164931)"><g><path d="M -9.484375 0.109375 L -8.125 0.09375 L -8.078125 4.53125 L -2.765625 4.46875 L -2.8125 0.03125 L -1.453125 0.015625 L -1.34375 10.140625 L -2.703125 10.15625 L -2.75 5.765625 L -8.0625 5.828125 L -8.015625 10.21875 L -9.375 10.234375 Z M -9.484375 0.109375 "/></g></g></g><g fill="#0cc0df" fill-opacity="1"><g transform="translate(182.281156, 266.808456)"><g/></g></g><g fill="#0cc0df" fill-opacity="1"><g transform="translate(174.129841, 265.607446)"><g><path d="M -8.765625 -1.703125 C -8.398438 -1.804688 -7.945312 -1.878906 -7.40625 -1.921875 C -6.875 -1.960938 -6.320312 -1.90625 -5.75 -1.75 C -4.757812 -1.46875 -3.945312 -0.992188 -3.3125 -0.328125 C -2.675781 0.328125 -2.257812 1.082031 -2.0625 1.9375 C -1.863281 2.789062 -1.894531 3.671875 -2.15625 4.578125 C -2.425781 5.535156 -2.875 6.335938 -3.5 6.984375 C -4.132812 7.640625 -4.875 8.082031 -5.71875 8.3125 C -6.570312 8.539062 -7.46875 8.519531 -8.40625 8.25 C -8.945312 8.101562 -9.429688 7.890625 -9.859375 7.609375 C -10.296875 7.328125 -10.675781 7.015625 -11 6.671875 L -10.125 5.59375 C -9.53125 6.3125 -8.851562 6.78125 -8.09375 7 C -7.46875 7.175781 -6.835938 7.171875 -6.203125 6.984375 C -5.566406 6.804688 -5.007812 6.476562 -4.53125 6 C -4.0625 5.519531 -3.726562 4.9375 -3.53125 4.25 C -3.332031 3.550781 -3.296875 2.878906 -3.421875 2.234375 C -3.554688 1.585938 -3.847656 1.023438 -4.296875 0.546875 C -4.753906 0.078125 -5.34375 -0.257812 -6.0625 -0.46875 C -6.925781 -0.707031 -7.75 -0.675781 -8.53125 -0.375 Z M -8.765625 -1.703125 "/></g></g></g><g fill="#0cc0df" fill-opacity="1"><g transform="translate(161.293577, 261.612352)"><g><path d="M -6.875 7.953125 L -3.109375 -0.015625 L -7.765625 -2.21875 L -7.203125 -3.40625 L -1.3125 -0.625 L -5.640625 8.53125 Z M -6.875 7.953125 "/></g></g></g><g fill="#0cc0df" fill-opacity="1"><g transform="translate(150.153271, 256.144912)"><g><path d="M -3.609375 3.625 C -4.148438 4.375 -4.835938 4.9375 -5.671875 5.3125 C -6.503906 5.6875 -7.378906 5.835938 -8.296875 5.765625 C -9.222656 5.691406 -10.0625 5.382812 -10.8125 4.84375 C -11.570312 4.300781 -12.132812 3.601562 -12.5 2.75 C -12.875 1.90625 -13.019531 1.023438 -12.9375 0.109375 C -12.863281 -0.804688 -12.554688 -1.640625 -12.015625 -2.390625 C -11.472656 -3.148438 -10.78125 -3.710938 -9.9375 -4.078125 C -9.101562 -4.453125 -8.226562 -4.597656 -7.3125 -4.515625 C -6.394531 -4.429688 -5.554688 -4.117188 -4.796875 -3.578125 C -4.046875 -3.035156 -3.476562 -2.347656 -3.09375 -1.515625 C -2.71875 -0.679688 -2.570312 0.1875 -2.65625 1.09375 C -2.738281 2.007812 -3.054688 2.851562 -3.609375 3.625 Z M -4.734375 2.8125 C -4.328125 2.238281 -4.085938 1.613281 -4.015625 0.9375 C -3.953125 0.257812 -4.054688 -0.382812 -4.328125 -1 C -4.609375 -1.613281 -5.03125 -2.117188 -5.59375 -2.515625 C -6.15625 -2.921875 -6.769531 -3.15625 -7.4375 -3.21875 C -8.101562 -3.28125 -8.738281 -3.164062 -9.34375 -2.875 C -9.957031 -2.582031 -10.46875 -2.148438 -10.875 -1.578125 C -11.289062 -1.003906 -11.535156 -0.378906 -11.609375 0.296875 C -11.679688 0.972656 -11.582031 1.617188 -11.3125 2.234375 C -11.050781 2.859375 -10.632812 3.375 -10.0625 3.78125 C -9.507812 4.175781 -8.890625 4.398438 -8.203125 4.453125 C -7.523438 4.503906 -6.878906 4.382812 -6.265625 4.09375 C -5.648438 3.800781 -5.140625 3.375 -4.734375 2.8125 Z M -4.734375 2.8125 "/></g></g></g><g fill="#0cc0df" fill-opacity="1"><g transform="translate(137.676967, 246.682752)"><g><path d="M -4.4375 0.515625 C -4.113281 0.203125 -3.894531 -0.148438 -3.78125 -0.546875 C -3.675781 -0.941406 -3.675781 -1.347656 -3.78125 -1.765625 C -3.882812 -2.179688 -4.085938 -2.550781 -4.390625 -2.875 C -4.710938 -3.21875 -5.078125 -3.453125 -5.484375 -3.578125 C -5.890625 -3.710938 -6.300781 -3.734375 -6.71875 -3.640625 C -7.132812 -3.546875 -7.503906 -3.34375 -7.828125 -3.03125 L -12.578125 1.46875 L -13.484375 0.5 L -8.71875 -4.03125 C -8.195312 -4.519531 -7.617188 -4.832031 -6.984375 -4.96875 C -6.347656 -5.113281 -5.71875 -5.078125 -5.09375 -4.859375 C -4.476562 -4.648438 -3.925781 -4.289062 -3.4375 -3.78125 C -2.957031 -3.269531 -2.628906 -2.703125 -2.453125 -2.078125 C -2.273438 -1.453125 -2.273438 -0.828125 -2.453125 -0.203125 C -2.628906 0.421875 -2.976562 0.976562 -3.5 1.46875 L -8.265625 6 L -9.1875 5.015625 Z M -4.4375 0.515625 "/></g></g></g><g fill="#0cc0df" fill-opacity="1"><g transform="translate(128.307705, 236.355576)"><g><path d="M -9.265625 4.328125 L -10.78125 2 C -11.476562 0.945312 -11.84375 -0.0546875 -11.875 -1.015625 C -11.90625 -1.984375 -11.695312 -2.84375 -11.25 -3.59375 C -10.800781 -4.34375 -10.203125 -4.957031 -9.453125 -5.4375 C -8.640625 -5.96875 -7.789062 -6.25 -6.90625 -6.28125 C -6.03125 -6.3125 -5.210938 -6.117188 -4.453125 -5.703125 C -3.691406 -5.285156 -3.066406 -4.703125 -2.578125 -3.953125 L -0.796875 -1.21875 Z M -3.53125 -3.015625 C -3.9375 -3.640625 -4.425781 -4.113281 -5 -4.4375 C -5.570312 -4.769531 -6.179688 -4.921875 -6.828125 -4.890625 C -7.484375 -4.859375 -8.132812 -4.628906 -8.78125 -4.203125 C -9.445312 -3.773438 -9.921875 -3.257812 -10.203125 -2.65625 C -10.492188 -2.0625 -10.601562 -1.441406 -10.53125 -0.796875 C -10.457031 -0.160156 -10.238281 0.4375 -9.875 1 L -8.921875 2.46875 L -2.640625 -1.640625 Z M -3.53125 -3.015625 "/></g></g></g><g clip-path="url(#5c8f4718b2)"><path fill="#0cc0df" d="M 202.226562 194.40625 C 202.226562 194.140625 202.117188 194.035156 201.996094 193.949219 C 201.765625 193.984375 201.417969 194.078125 200.992188 194.230469 C 200.980469 194.246094 200.964844 194.265625 200.957031 194.277344 C 200.832031 194.367188 200.726562 194.445312 200.632812 194.546875 C 200.464844 194.742188 200.304688 194.941406 200.148438 195.144531 C 199.960938 195.386719 199.769531 195.628906 199.566406 195.839844 C 199.183594 196.226562 198.800781 196.605469 198.410156 196.976562 C 197.785156 197.585938 197.164062 198.203125 196.550781 198.824219 C 194.515625 200.886719 192.074219 202.507812 189.089844 203.777344 C 187.800781 204.324219 186.484375 204.589844 185.203125 204.59375 C 183.617188 204.585938 181.671875 203.777344 180.964844 201.566406 C 180.648438 200.566406 180.507812 199.699219 180.519531 198.839844 C 180.570312 196.015625 181.3125 193.261719 181.972656 190.835938 C 182.039062 190.582031 182.121094 190.320312 182.199219 190.070312 C 182.523438 189 182.859375 187.894531 182.59375 186.695312 L 182.566406 186.621094 C 181.949219 185.523438 180.964844 185.160156 179.644531 185.542969 C 179.207031 185.667969 178.773438 185.824219 178.445312 185.945312 C 175.734375 186.941406 173.503906 188.117188 171.628906 189.53125 L 171.574219 189.5 C 171.574219 189.464844 171.582031 189.441406 171.585938 189.425781 C 171.875 188.917969 172.152344 188.40625 172.4375 187.894531 C 172.75 187.335938 173.0625 186.777344 173.371094 186.226562 C 173.574219 185.882812 173.78125 185.542969 173.992188 185.207031 C 174.46875 184.46875 174.941406 183.679688 175.429688 182.808594 C 176.425781 181.140625 177.339844 179.394531 178.230469 177.707031 C 178.496094 177.203125 178.761719 176.699219 179.027344 176.195312 C 180.117188 174.148438 180.820312 172.511719 181.308594 170.902344 C 181.574219 170.03125 181.699219 169.140625 181.679688 168.167969 C 181.675781 167.242188 181.261719 166.554688 180.414062 166.054688 C 179.511719 165.523438 178.550781 165.542969 177.636719 165.660156 C 175.839844 165.871094 174.230469 166.539062 172.46875 167.316406 C 168.765625 168.964844 165.414062 171.222656 162.300781 173.394531 C 159.023438 175.679688 155.769531 178.179688 152.359375 181.039062 C 152.238281 181.140625 152.113281 181.226562 151.957031 181.332031 C 152.054688 181.183594 152.148438 181.027344 152.230469 180.875 C 152.351562 180.648438 152.484375 180.429688 152.609375 180.21875 C 152.679688 180.105469 152.75 179.996094 152.808594 179.890625 L 152.992188 179.589844 C 153.136719 179.359375 153.285156 179.121094 153.417969 178.890625 C 153.664062 178.46875 153.914062 178.046875 154.148438 177.632812 C 154.503906 177.039062 154.847656 176.4375 155.1875 175.835938 C 155.441406 175.375 155.6875 174.902344 155.9375 174.414062 L 156.082031 174.132812 L 156.105469 174.027344 C 156.113281 173.617188 156.082031 173.207031 155.78125 172.964844 C 155.460938 172.695312 155.011719 172.734375 154.464844 173.0625 L 154.414062 173.105469 C 154.359375 173.160156 154.308594 173.21875 154.273438 173.28125 L 154.175781 173.367188 C 153.960938 173.550781 153.796875 173.691406 153.664062 173.882812 L 152.609375 175.433594 C 152.359375 175.792969 152.117188 176.175781 151.871094 176.542969 C 148.820312 177.597656 145.820312 178.734375 142.714844 179.546875 C 138.917969 180.542969 135.15625 181.722656 131.34375 182.660156 C 125.363281 184.132812 119.328125 185.378906 113.25 186.394531 C 106.324219 187.550781 99.367188 188.476562 92.367188 189.011719 C 85.972656 189.503906 79.558594 189.71875 73.144531 189.679688 C 65.851562 189.636719 58.613281 189.257812 51.46875 187.691406 C 48.265625 186.984375 45.277344 185.761719 42.609375 183.824219 C 42.222656 183.546875 41.925781 183.15625 41.59375 182.824219 C 42.242188 181.980469 43.128906 181.4375 43 180.207031 C 42.792969 179.78125 42.539062 179.246094 42.261719 178.660156 C 41.507812 178.585938 40.753906 178.511719 40.320312 178.46875 C 38.019531 178.875 38.488281 180.96875 37.503906 181.972656 C 37.773438 183.164062 38.148438 184.230469 39.183594 184.835938 C 40.355469 185.527344 41.570312 186.183594 42.820312 186.714844 C 46.054688 188.097656 49.464844 188.917969 52.925781 189.464844 C 60.386719 190.625 67.902344 191.027344 75.445312 191.015625 C 81.351562 191.007812 87.261719 190.75 93.144531 190.222656 C 97.664062 189.816406 102.175781 189.347656 106.667969 188.714844 C 111.496094 188.035156 116.300781 187.210938 121.089844 186.3125 C 127.226562 185.167969 133.300781 183.734375 139.308594 182.023438 C 143.09375 180.941406 146.820312 179.679688 150.566406 178.472656 C 149.96875 179.371094 149.359375 180.246094 148.777344 181.152344 C 148.207031 182.050781 147.679688 183 147.167969 183.910156 C 146.761719 184.640625 146.339844 185.394531 145.90625 186.117188 C 145.414062 186.917969 144.882812 187.613281 144.320312 188.195312 L 143.863281 188.660156 C 143.324219 189.1875 142.78125 189.699219 142.242188 190.21875 C 141.855469 190.582031 141.472656 190.949219 141.09375 191.320312 L 141.046875 191.363281 C 140.910156 191.496094 140.773438 191.636719 140.660156 191.761719 L 140.453125 191.960938 C 140.289062 192.121094 140.128906 192.277344 139.976562 192.453125 C 139.527344 192.980469 139.078125 193.5 138.621094 194.019531 C 137.414062 195.414062 136.160156 196.855469 134.964844 198.300781 C 133.6875 199.851562 132.558594 201.542969 131.476562 203.1875 C 131.164062 203.664062 130.851562 204.128906 130.539062 204.597656 C 129.792969 205.699219 129.175781 206.894531 128.574219 208.046875 L 128.171875 208.820312 C 127.949219 209.246094 127.730469 209.753906 127.808594 210.316406 C 127.765625 210.65625 127.800781 210.984375 127.921875 211.316406 L 127.949219 211.402344 L 128.023438 211.449219 C 128.152344 211.535156 128.277344 211.648438 128.40625 211.765625 C 128.722656 212.046875 129.082031 212.363281 129.605469 212.460938 L 129.652344 212.46875 L 129.699219 212.460938 C 130.4375 212.320312 130.851562 211.816406 131.226562 211.367188 L 131.285156 211.296875 C 132.136719 210.277344 132.976562 209.21875 133.785156 208.191406 C 134.4375 207.371094 135.089844 206.546875 135.757812 205.734375 C 137.871094 203.152344 139.800781 200.464844 141.242188 198.414062 C 143.234375 195.574219 144.792969 193.195312 146.160156 190.917969 C 147.152344 189.257812 148.121094 188.042969 149.207031 187.089844 C 149.976562 186.417969 150.742188 185.738281 151.515625 185.058594 C 153.789062 183.039062 156.140625 180.957031 158.546875 179.023438 C 163.039062 175.402344 166.984375 172.75 170.949219 170.679688 C 172.957031 169.632812 174.78125 168.90625 176.535156 168.460938 C 177.320312 168.273438 178.15625 168.125 178.941406 168.414062 C 179.234375 168.695312 179.398438 169.019531 179.433594 169.347656 C 179.417969 169.511719 179.382812 169.679688 179.328125 169.847656 C 179.003906 170.898438 178.652344 171.8125 178.261719 172.648438 C 176.929688 175.464844 175.296875 178.179688 173.71875 180.808594 C 172.988281 182.015625 172.265625 183.230469 171.558594 184.453125 C 170.304688 186.636719 168.910156 188.789062 167.558594 190.867188 L 166.191406 192.984375 C 165.074219 194.726562 163.921875 196.523438 162.496094 198.082031 C 161.695312 198.953125 160.996094 199.925781 160.320312 200.863281 L 160.167969 201.082031 C 159.8125 201.574219 159.328125 202.234375 159.445312 203.050781 C 159.410156 203.367188 159.445312 203.671875 159.542969 203.972656 L 159.570312 204.050781 L 159.640625 204.105469 C 159.871094 204.273438 160.152344 204.472656 160.414062 204.660156 L 160.53125 204.746094 L 160.660156 204.699219 C 161.402344 204.417969 161.957031 204.003906 162.398438 203.40625 C 162.785156 202.878906 163.175781 202.359375 163.570312 201.832031 C 164.347656 200.792969 165.160156 199.726562 165.882812 198.625 C 166.660156 197.445312 167.589844 196.34375 168.726562 195.265625 C 168.832031 195.160156 168.941406 195.0625 169.054688 194.960938 C 169.167969 194.855469 169.273438 194.753906 169.386719 194.648438 C 171.566406 192.578125 174.167969 190.808594 177.582031 189.074219 C 178.058594 188.835938 178.59375 188.679688 179.113281 188.53125 L 179.398438 188.445312 C 179.539062 188.402344 179.722656 188.390625 179.917969 188.375 C 179.953125 188.375 179.992188 188.375 180.03125 188.371094 C 180.039062 188.421875 180.046875 188.476562 180.058594 188.519531 C 180.066406 188.601562 180.078125 188.667969 180.089844 188.742188 L 180.070312 188.863281 C 179.84375 189.894531 179.605469 190.96875 179.25 191.972656 C 178.78125 193.277344 178.523438 194.640625 178.273438 195.953125 L 178.132812 196.707031 C 177.980469 197.496094 177.910156 198.316406 177.929688 199.199219 C 177.921875 199.992188 177.972656 200.828125 178.097656 201.691406 C 178.34375 203.496094 178.984375 204.851562 180.050781 205.824219 C 181.566406 207.21875 183.425781 207.792969 185.535156 207.53125 C 188.015625 207.222656 190.476562 206.230469 193.054688 204.488281 C 195.710938 202.695312 198.15625 200.394531 200.515625 197.457031 C 200.957031 196.910156 201.316406 196.285156 201.660156 195.679688 L 201.722656 195.5625 C 201.917969 195.253906 202.101562 194.9375 202.277344 194.621094 L 202.277344 194.613281 C 202.269531 194.535156 202.242188 194.476562 202.242188 194.402344 Z M 202.226562 194.40625 " fill-opacity="1" fill-rule="nonzero"/></g><g clip-path="url(#c7d024289f)"><path fill="#0cc0df" d="M 369.277344 162.410156 C 368.59375 161.972656 367.792969 161.925781 366.984375 161.855469 C 364.695312 161.65625 362.433594 161.976562 360.167969 162.152344 C 355.347656 162.527344 350.59375 163.398438 345.84375 164.265625 C 344.59375 164.496094 343.375 164.90625 342.117188 165.050781 C 339.519531 165.347656 336.984375 165.992188 334.421875 166.480469 C 331.261719 167.082031 328.132812 167.824219 324.996094 168.539062 C 322.902344 169.011719 320.8125 169.5 318.738281 170.066406 C 315.371094 170.980469 312.015625 171.933594 308.675781 172.929688 C 304.054688 174.304688 299.4375 175.71875 294.832031 177.171875 C 289.789062 178.765625 284.769531 180.421875 279.730469 182.042969 C 275.269531 183.484375 270.796875 184.914062 266.328125 186.34375 C 260.007812 188.363281 253.679688 190.390625 247.347656 192.394531 C 244.089844 193.429688 240.839844 194.480469 237.546875 195.402344 C 234.449219 196.273438 231.308594 196.964844 228.203125 197.769531 C 225.21875 198.535156 222.1875 199.085938 219.148438 199.578125 C 214.644531 200.316406 210.113281 200.808594 205.550781 200.976562 C 203.199219 201.070312 200.851562 201.015625 198.519531 200.765625 C 196.851562 200.589844 195.195312 200.285156 193.640625 199.613281 C 192.121094 198.957031 190.808594 198.074219 190.316406 196.355469 C 189.996094 195.21875 190.050781 194.113281 190.421875 192.996094 C 191.25 190.539062 192.667969 188.4375 194.324219 186.496094 C 195.503906 185.113281 196.742188 183.792969 197.949219 182.445312 C 198.265625 182.101562 198.523438 181.691406 198.867188 181.386719 C 199.867188 180.515625 200.878906 179.636719 201.9375 178.835938 C 203.269531 177.816406 204.601562 176.789062 206.019531 175.910156 C 207.507812 175 209.167969 174.414062 210.851562 173.933594 C 211.3125 173.804688 211.769531 173.738281 212.285156 174.167969 C 212.246094 174.410156 212.285156 174.765625 212.144531 175.019531 C 211.34375 176.480469 210.507812 177.914062 209.710938 179.300781 C 209.808594 180.195312 210.226562 181.015625 210.972656 181.757812 C 211.273438 181.78125 211.609375 181.8125 211.945312 181.828125 C 212.277344 181.839844 212.601562 181.828125 212.832031 181.828125 C 214.019531 181.007812 215.011719 180.164062 215.722656 178.992188 C 216.753906 177.300781 217.113281 175.523438 216.746094 173.597656 C 216.523438 172.414062 215.894531 171.574219 214.796875 170.957031 C 213.597656 170.285156 212.378906 170.085938 211.121094 170.453125 C 209.585938 170.890625 208.003906 171.207031 206.59375 172.027344 C 205.445312 172.695312 204.269531 173.332031 203.117188 174.003906 C 202.773438 174.207031 202.445312 174.449219 202.128906 174.695312 C 200.746094 175.75 199.210938 176.621094 198.152344 178.058594 C 195.992188 179.769531 194.085938 181.738281 192.382812 183.898438 C 191.886719 184.527344 191.441406 185.199219 190.945312 185.824219 C 189.191406 188.003906 187.949219 190.433594 187.429688 193.183594 C 186.875 196.113281 187.664062 198.628906 190.027344 200.5625 C 191.464844 201.75 193.175781 202.335938 194.941406 202.75 C 196.644531 203.148438 198.382812 203.324219 200.117188 203.433594 C 202.800781 203.597656 205.476562 203.503906 208.15625 203.261719 C 211.226562 202.980469 214.277344 202.613281 217.328125 202.132812 C 221.96875 201.394531 226.53125 200.359375 231.066406 199.171875 C 234.109375 198.367188 237.15625 197.585938 240.164062 196.660156 C 245.410156 195.046875 250.628906 193.335938 255.855469 191.652344 C 259.746094 190.402344 263.601562 189.054688 267.5 187.820312 C 270.957031 186.726562 274.375 185.527344 277.816406 184.410156 C 281.121094 183.332031 284.445312 182.296875 287.761719 181.246094 C 289.226562 180.777344 290.6875 180.292969 292.15625 179.820312 C 295.71875 178.679688 299.292969 177.550781 302.863281 176.421875 C 304.332031 175.960938 305.792969 175.46875 307.277344 175.050781 C 311.535156 173.863281 315.796875 172.671875 320.074219 171.546875 C 323.964844 170.523438 327.847656 169.457031 331.78125 168.625 C 336.4375 167.636719 341.136719 166.835938 345.832031 166.027344 C 351.257812 165.097656 356.71875 164.488281 362.230469 164.394531 C 363.394531 164.371094 364.476562 164.617188 365.671875 165.019531 C 365.355469 165.609375 365.082031 166.121094 364.796875 166.671875 C 364.878906 167.035156 364.960938 167.417969 365.042969 167.761719 C 366.796875 168.738281 368.324219 168.585938 369.722656 167.324219 C 370.050781 166.546875 370.359375 165.808594 370.65625 165.101562 C 370.429688 164.21875 369.964844 163.324219 369.265625 162.425781 Z M 369.277344 162.410156 " fill-opacity="1" fill-rule="nonzero"/></g></svg>