<svg xmlns="http://www.w3.org/2000/svg" version="1.1" xmlns:xlink="http://www.w3.org/1999/xlink" xmlns:svgjs="http://svgjs.dev/svgjs" width="1500" height="1500" viewBox="0 0 1500 1500"><rect width="1500" height="1500" fill="#ffffff"></rect><g transform="matrix(0.6666666666666666,0,0,0.6666666666666666,249.39393939393932,595.8576203895777)"><svg viewBox="0 0 396 122" data-background-color="#ffffff" preserveAspectRatio="xMidYMid meet" height="462" width="1500" xmlns="http://www.w3.org/2000/svg" xmlns:xlink="http://www.w3.org/1999/xlink"><g id="tight-bounds" transform="matrix(1,0,0,1,0.24000000000003752,0.056397118413997305)"><svg viewBox="0 0 395.5199999999999 121.88720576317203" height="121.88720576317203" width="395.5199999999999"><g><svg viewBox="0 0 618.7847395219876 190.69059180124222" height="121.88720576317203" width="395.5199999999999"><g transform="matrix(1,0,0,1,223.26473952198756,26.35448844720497)"><svg viewBox="0 0 395.52 137.98161490683228" height="137.98161490683228" width="395.52"><g id="textblocktransform"><svg viewBox="0 0 395.52 137.98161490683228" height="137.98161490683228" width="395.52" id="textblock"><g><svg viewBox="0 0 395.52 137.98161490683228" height="137.98161490683228" width="395.52"><g transform="matrix(1,0,0,1,0,0)"><svg width="395.52" viewBox="-0.45 -29.3 96.60000000000001 33.699999999999996" height="137.98161490683228" data-palette-color="#52c0d1"><path d="M10.6-4.05L10.6-4.05Q6.1 4.4 2.1 4.4L2.1 4.4Q-0.45 4.4-0.45 1.8L-0.45 1.8Q-0.45 0.25 0.75-1.65L0.75-1.65Q2.8-4.85 7.13-9.53 11.45-14.2 14.45-16.95L14.45-16.95 16.35-23.4Q13.85-21.05 9.85-20.65L9.85-20.65Q9.35-20.6 9.33-20.95 9.3-21.3 9.75-21.4L9.75-21.4 9.95-21.45Q12.1-21.65 14.38-23.7 16.65-25.75 17.8-28.4L17.8-28.4Q18-29.05 19.55-29.03 21.1-29 21.05-28.4L21.05-28.4 17.6-19.85Q24.4-25.6 27.35-25.75L27.35-25.75Q27.7-25.75 28.05-25.75L28.05-25.75Q32-25.75 33.5-23.15L33.5-23.15Q34.8-20.95 34.8-18L34.8-18Q34.8-13.6 32.1-5.4L32.1-5.4Q31.65-3.95 31.73-3.93 31.8-3.9 32-4.23 32.2-4.55 32.63-5.2 33.05-5.85 34.65-8.5L34.65-8.5Q40.4-18.15 46.35-24.6L46.35-24.6Q48.3-26.65 50.25-26.65L50.25-26.65Q51.4-26.65 52-25.85 52.6-25.05 52.6-24.1 52.6-23.15 52.18-21.45 51.75-19.75 49.6-14.35L49.6-14.35Q46.95-7.75 46.95-3.55L46.95-3.55Q46.95-0.3 48.75-0.3L48.75-0.3Q50.05-0.3 52.2-1.95L52.2-1.95Q55.5-4.7 57.5-7.4L57.5-7.4Q57.75-7.75 57.98-7.55 58.2-7.35 58.2-7.23 58.2-7.1 58.1-7L58.1-7Q57.15-5.5 55.1-3.4L55.1-3.4Q51.75 0.15 49.7 0.8L49.7 0.8Q48.7 1.15 47.75 1.15L47.75 1.15Q44.45 1.1 44.45-3.6L44.45-3.6Q44.45-6.05 45.05-8.35 45.65-10.65 46.03-11.9 46.4-13.15 47-14.83 47.6-16.5 48-17.4L48-17.4Q49.3-20.65 49.6-21.45 49.9-22.25 49.9-22.83 49.9-23.4 49.6-23.63 49.3-23.85 48.8-23.85 48.3-23.85 47.25-22.95L47.25-22.95Q43.4-19.65 38.58-12.55 33.75-5.45 31.8-1.4L31.8-1.4Q31.4-0.55 31-0.55 30.6-0.55 30.15-1.28 29.7-2 29.7-2.33 29.7-2.65 29.75-2.75L29.75-2.75Q31.05-6.05 31.63-9.8 32.2-13.55 32.2-15.95L32.2-15.95Q32.2-24.4 28.55-24.4L28.55-24.4Q25.15-24.4 16.2-16.2L16.2-16.2Q15.75-14.9 14.25-11.5L14.25-11.5Q12.2-7.05 10.6-4.05ZM2.25 2.7L2.25 2.7Q5.35 2.7 9.85-5.95L9.85-5.95Q12.35-10.75 13.45-13.75L13.45-13.75Q10.8-11.25 7.6-7.63 4.4-4 3.05-2.2L3.05-2.2Q1.3 0.15 1.3 1.43 1.3 2.7 2.25 2.7ZM93.65-25.2L93.65-25.2Q93.65-28 90.7-28L90.7-28Q88.15-28 84.07-25.6 80-23.2 75.7-18.28 71.4-13.35 69.7-7.95L69.7-7.95Q69-5.8 69-3.98 69-2.15 70.05-0.8L70.05-0.8Q71.9 1.6 76.09 1.65L76.09 1.65Q76.4 1.65 76.65 1.65L76.65 1.65Q81.3 1.65 86.7-0.73 92.09-3.1 95.34-7.7L95.34-7.7Q95.59-8.05 95.87-7.85 96.15-7.65 96.15-7.5 96.15-7.35 96.05-7.25L96.05-7.25Q92.34-2.2 86.95 0.35 81.55 2.9 76.5 2.9L76.5 2.9Q71.2 2.9 68.5-0.1L68.5-0.1Q66.75-2.05 66.75-5.2L66.75-5.2Q66.75-10.5 70.75-16.6L70.75-16.6Q76.2-24.9 83.95-28.1L83.95-28.1Q86.95-29.3 89.7-29.3L89.7-29.3Q93.09-29.3 94.55-27.7L94.55-27.7Q95.5-26.6 95.5-25.15L95.5-25.15Q95.5-22.4 92.59-19.5 89.7-16.6 86.17-14.88 82.65-13.15 80.05-12.9L80.05-12.9Q79-12.8 79.05-13.45L79.05-13.45Q79.09-14.35 80.3-14.45L80.3-14.45Q84.3-14.8 87.65-16.88 91-18.95 92.8-22.4L92.8-22.4Q93.65-23.75 93.65-25.2Z" opacity="1" transform="matrix(1,0,0,1,0,0)" fill="#52c0d1" class="wordmark-text-0" data-fill-palette-color="primary" id="text-0"></path></svg></g></svg></g></svg></g></svg></g><g><svg viewBox="0 0 190.69059180124222 190.69059180124222" height="190.69059180124222" width="190.69059180124222"><g><svg xmlns="http://www.w3.org/2000/svg" xmlns:xlink="http://www.w3.org/1999/xlink" version="1.1" x="0" y="0" viewBox="16 16 480 480" style="enable-background:new 0 0 512 512;" xml:space="preserve" height="190.69059180124222" width="190.69059180124222" class="icon-icon-0" data-fill-palette-color="accent" id="icon-0"><g fill="#0b0b0b" data-fill-palette-color="accent"><g fill="#0b0b0b" data-fill-palette-color="accent"><g fill="#0b0b0b" data-fill-palette-color="accent"><path d="M156 496C150.49 496 146 491.51 146 486S150.49 476 156 476H476V466C476 460.479 480.49 456 486 456S496 460.479 496 466V486C496 488.64 494.93 491.21 493.069 493.069A10.05 10.05 0 0 1 486 496zM106 496C100.49 496 96 491.51 96 486S100.49 476 106 476C111.52 476 116 480.49 116 486S111.52 496 106 496M56 496H26C23.37 496 20.79 494.93 18.93 493.069A10.07 10.07 0 0 1 16 486V166C16 160.49 20.49 156 26 156S36 160.49 36 166V476H56C61.51 476 66 480.49 66 486S61.51 496 56 496M486 426C480.49 426 476 421.51 476 416 476 410.479 480.49 406 486 406S496 410.479 496 416C496 421.51 491.51 426 486 426M486 376C480.49 376 476 371.51 476 366V36C470.49 36 466 31.51 466 26S470.49 16 476 16H486C488.63 16 491.21 17.07 493.069 18.93A10.07 10.07 0 0 1 496 26V366C496 371.51 491.51 376 486 376M26 126C20.49 126 16 121.51 16 116S20.49 106 26 106 36 110.49 36 116 31.51 126 26 126M26 76C20.49 76 16 71.51 16 66V26C16 23.37 17.07 20.79 18.93 18.93S23.37 16 26 16H376C381.51 16 386 20.49 386 26S381.51 36 376 36H36V66C36 71.51 31.51 76 26 76M426 36C420.479 36 416 31.51 416 26S420.479 16 426 16C431.51 16 436 20.49 436 26S431.51 36 426 36" fill="#0b0b0b" data-fill-palette-color="accent"></path></g><g fill="#0b0b0b" data-fill-palette-color="accent"><path d="M486 116H136C130.49 116 126 111.51 126 106S130.49 96 136 96H486C491.51 96 496 100.49 496 106S491.51 116 486 116M86 116C80.49 116 76 111.51 76 106S80.49 96 86 96 96 100.49 96 106 91.51 116 86 116M36 116H26C20.49 116 16 111.51 16 106S20.49 96 26 96H36C41.51 96 46 100.49 46 106S41.51 116 36 116" fill="#0b0b0b" data-fill-palette-color="accent"></path></g><g fill="#0b0b0b" data-fill-palette-color="accent"><path d="M446 76H266C260.479 76 256 71.51 256 66S260.479 56 266 56H446C451.51 56 456 60.49 456 66S451.51 76 446 76" fill="#0b0b0b" data-fill-palette-color="accent"></path></g><g fill="#0b0b0b" data-fill-palette-color="accent"><path d="M86 76H66C60.49 76 56 71.51 56 66S60.49 56 66 56H86C91.51 56 96 60.49 96 66S91.51 76 86 76" fill="#0b0b0b" data-fill-palette-color="accent"></path></g><g fill="#0b0b0b" data-fill-palette-color="accent"><path d="M176 76H156C150.49 76 146 71.51 146 66S150.49 56 156 56H176C181.51 56 186 60.49 186 66S181.51 76 176 76" fill="#0b0b0b" data-fill-palette-color="accent"></path></g><g fill="#0b0b0b" data-fill-palette-color="accent"><path d="M226 386C220.49 386 216 381.51 216 376S220.49 366 226 366 236 370.49 236 376 231.51 386 226 386M176 386H86C83.37 386 80.79 384.93 78.93 383.069A10.07 10.07 0 0 1 76 376V196C76 193.37 77.07 190.79 78.93 188.93S83.37 186 86 186H266C268.63 186 271.21 187.07 273.069 188.93A10.08 10.08 0 0 1 276 196V366C276 371.51 271.51 376 266 376S256 371.51 256 366V206H96V366H176C181.51 366 186 370.49 186 376 186 381.26 181.89 385.649 176.64 385.979 176.43 385.99 176.21 386 176 386" fill="#0b0b0b" data-fill-palette-color="accent"></path></g><g fill="#0b0b0b" data-fill-palette-color="accent"><path d="M156 266C150.49 266 146 261.51 146 256S150.49 246 156 246H256V206H96V226C96 231.51 91.51 236 86 236S76 231.51 76 226V196C76 193.37 77.07 190.79 78.93 188.93S83.37 186 86 186H266C268.63 186 271.21 187.07 273.069 188.93A10.08 10.08 0 0 1 276 196V256C276 258.63 274.93 261.21 273.069 263.069A10.07 10.07 0 0 1 266 266zM106 266C100.49 266 96 261.51 96 256S100.49 246 106 246 116 250.49 116 256 111.51 266 106 266" fill="#0b0b0b" data-fill-palette-color="accent"></path></g><g fill="#0b0b0b" data-fill-palette-color="accent"><path d="M146 346C143.33 346 140.82 344.96 138.93 343.069L118.93 323.069C117.04 321.179 116 318.67 116 316S117.04 310.819 118.93 308.93L138.93 288.93C138.93 288.92 138.94 288.92 138.94 288.92A9.96 9.96 0 0 1 146 286C148.67 286 151.18 287.04 153.07 288.93 156.97 292.83 156.97 299.17 153.07 303.07L140.14 316 153.07 328.93C154.96 330.82 156 333.33 156 336S154.96 341.18 153.07 343.069A9.93 9.93 0 0 1 146 346" fill="#0b0b0b" data-fill-palette-color="accent"></path></g><g fill="#0b0b0b" data-fill-palette-color="accent"><path d="M206 346C203.33 346 200.82 344.96 198.93 343.069 195.03 339.17 195.03 332.83 198.93 328.929L211.86 316 198.93 303.069C197.04 301.179 196 298.67 196 296S197.04 290.819 198.93 288.93A9.93 9.93 0 0 1 206 286C208.67 286 211.18 287.04 213.07 288.93L233.07 308.93C234.93 310.79 236 313.37 236 316S234.93 321.21 233.07 323.069L213.07 343.069A9.93 9.93 0 0 1 206 346" fill="#0b0b0b" data-fill-palette-color="accent"></path></g><rect x="116" y="216" width="20" height="20" fill="#0b0b0b" data-fill-palette-color="accent"></rect><rect x="156" y="216" width="20" height="20" fill="#0b0b0b" data-fill-palette-color="accent"></rect><g fill="#0b0b0b" data-fill-palette-color="accent"><path d="M376 206H316C310.49 206 306 201.51 306 196S310.49 186 316 186H376C381.51 186 386 190.49 386 196S381.51 206 376 206" fill="#0b0b0b" data-fill-palette-color="accent"></path></g><g fill="#0b0b0b" data-fill-palette-color="accent"><path d="M426 246H316C310.49 246 306 241.51 306 236S310.49 226 316 226H426C431.51 226 436 230.49 436 236S431.51 246 426 246" fill="#0b0b0b" data-fill-palette-color="accent"></path></g><g fill="#0b0b0b" data-fill-palette-color="accent"><path d="M317.815 318.958C317.815 316.09 318.33 313.23 319.362 310.384A23.6 23.6 0 0 1 323.868 302.751C325.84 300.51 328.25 298.693 331.097 297.305 333.945 295.916 337.183 295.221 340.816 295.221 345.075 295.221 348.773 296.186 351.912 298.112 355.05 300.041 357.381 302.55 358.906 305.643L350.431 311.561C349.938 310.307 349.31 309.264 348.548 308.434A10.6 10.6 0 0 0 346.06 306.416 9.4 9.4 0 0 0 343.269 305.34 13.4 13.4 0 0 0 340.545 305.038C338.572 305.038 336.869 305.464 335.435 306.314A11.4 11.4 0 0 0 331.872 309.609C330.931 310.955 330.225 312.48 329.754 314.183S329.048 317.613 329.048 319.361C329.048 321.244 329.327 323.06 329.889 324.808S331.235 328.103 332.243 329.448A11.3 11.3 0 0 0 335.908 332.642C337.343 333.427 338.933 333.818 340.681 333.818 341.577 333.818 342.507 333.696 343.472 333.45S345.367 332.822 346.263 332.306 347.966 331.118 348.684 330.287C349.402 329.458 349.985 328.436 350.432 327.227L359.51 332.54A14.5 14.5 0 0 1 356.383 337.247 19.4 19.4 0 0 1 351.71 340.744C349.961 341.684 348.111 342.403 346.161 342.895S342.295 343.635 340.412 343.635C337.094 343.635 334.057 342.928 331.3 341.516S326.166 338.233 324.172 335.901C322.176 333.572 320.618 330.924 319.498 327.965 318.376 325.011 317.815 322.007 317.815 318.958" fill="#0b0b0b" data-fill-palette-color="accent"></path><path d="M386.072 315.059V323.665H379.751V330.659H370.066V323.665H363.677V315.059H370.066V308.065H379.751V315.059z" fill="#0b0b0b" data-fill-palette-color="accent"></path><path d="M414.72 315.059V323.665H408.4V330.659H398.714V323.665H392.326V315.059H398.714V308.065H408.4V315.059z" fill="#0b0b0b" data-fill-palette-color="accent"></path></g></g></g></svg></g></svg></g></svg></g><defs></defs></svg><rect width="395.5199999999999" height="121.88720576317203" fill="none" stroke="none" visibility="hidden"></rect></g></svg></g></svg>